<svg xmlns="http://www.w3.org/2000/svg" width="150" height="150" viewBox="0 0 150 150"><path fill="#FFF" d="M80.182 63.824h18.547v11.071H80.182zM63.901 82.113h51.607v9.753H63.901z"/><path fill="#FFF" d="M71.21 72.215h36.13v11.722H71.21zm-40.907-3.532h22.641v23.184H30.303z"/><path fill="#9C8AC1" d="M89.705 91.866l5.271-3.422h28.979l-15.4 24.344H43.143L29.231 91.866z"/><g fill="#9C8AC1"><path d="M126.202 86.789a1.823 1.823 0 0 0-1.586-.925h-7.893V82.17a1.822 1.822 0 0 0-1.823-1.823h-5.547v-7.275a1.823 1.823 0 0 0-1.822-1.823h-7.218v-7.357a1.823 1.823 0 0 0-1.824-1.824H80.332a1.823 1.823 0 0 0-1.824 1.824v7.357H71.29a1.823 1.823 0 0 0-1.823 1.823v7.275H63.92a1.823 1.823 0 0 0-1.824 1.823v7.199h-7.369V69.425a1.824 1.824 0 0 0-1.824-1.823H31.022a1.824 1.824 0 0 0-1.824 1.823v19.944h-.296a1.822 1.822 0 0 0-1.569 2.754l11.084 18.688c1.373 2.287 4.419 4.013 7.087 4.013h60.301c2.667 0 5.714-1.725 7.088-4.015l13.288-22.183a1.826 1.826 0 0 0 .021-1.837zm-13.125-.925h-12.764v-1.871h12.764v1.871zm-16.41-1.871v1.896c-3.058.242-5.235 2.299-6.247 3.48h-8.265v-5.376h14.512zm9.04-3.646H91.12v-5.452h14.587v5.452zM82.155 65.714h14.511v5.534H82.155v-5.534zm-9.042 9.181h14.359v5.452H73.113v-5.452zm-7.369 9.098h12.764v5.376H65.744v-5.376zM32.845 71.249H51.08v3.515h-3.646a1.824 1.824 0 0 0 0 3.647h3.646v3.703h-3.646a1.824 1.824 0 1 0 0 3.646h3.646v3.609H32.845v-18.12zm76.922 37.684c-.705 1.174-2.592 2.242-3.961 2.242h-60.3c-1.368 0-3.256-1.068-3.956-2.233l-9.446-15.927H91.31c.606 0 1.181-.31 1.519-.814.018-.026 1.839-2.69 4.432-2.69h17.336c.099.017.2.028.304.028s.205-.012.305-.028h6.193l-11.632 19.422z"/><path d="M41.963 74.763c-.481 0-.95.193-1.291.533a1.828 1.828 0 0 0 1.291 3.114c.48 0 .951-.196 1.291-.536.34-.34.533-.81.533-1.287 0-.481-.193-.951-.533-1.291a1.842 1.842 0 0 0-1.291-.533zm-5.396 0a1.829 1.829 0 0 0-1.824 1.824 1.831 1.831 0 0 0 1.824 1.823c.481 0 .951-.196 1.29-.536s.533-.81.533-1.287c0-.481-.193-.951-.533-1.291a1.836 1.836 0 0 0-1.29-.533zm5.396 7.35c-.481 0-.95.193-1.291.533-.34.34-.533.81-.533 1.29 0 .479.193.948.533 1.289.34.339.81.535 1.291.535.48 0 .951-.196 1.291-.535.34-.341.533-.81.533-1.289 0-.48-.193-.95-.533-1.29a1.842 1.842 0 0 0-1.291-.533zm-5.396 0c-.479 0-.948.193-1.288.533-.339.34-.536.81-.536 1.29 0 .479.196.948.536 1.289.34.339.81.535 1.288.535.481 0 .951-.196 1.29-.535a1.84 1.84 0 0 0 .533-1.289c0-.48-.193-.95-.533-1.29s-.809-.533-1.29-.533zM54.768 96.72c-.478 0-.947.193-1.287.533-.34.339-.537.809-.537 1.29a1.828 1.828 0 0 0 3.115 1.29c.339-.34.533-.81.533-1.29 0-.481-.194-.951-.533-1.29-.34-.34-.81-.533-1.291-.533zm7.31 0c-.481 0-.951.193-1.29.533a1.832 1.832 0 0 0 0 2.58c.339.34.811.533 1.29.533.481 0 .95-.193 1.29-.533s.534-.81.534-1.29c0-.481-.194-.951-.534-1.29a1.833 1.833 0 0 0-1.29-.533zm7.309 0c-.481 0-.95.193-1.29.533-.34.339-.534.812-.534 1.29s.194.951.534 1.29c.34.34.809.533 1.29.533a1.83 1.83 0 0 0 1.288-.533c.339-.34.535-.812.535-1.29s-.196-.951-.535-1.29a1.83 1.83 0 0 0-1.288-.533zm7.308 0c-.479 0-.951.193-1.289.533-.34.339-.536.809-.536 1.29s.196.951.536 1.29a1.827 1.827 0 0 0 2.579 0c.339-.34.534-.81.534-1.29 0-.481-.195-.951-.534-1.29a1.832 1.832 0 0 0-1.29-.533zm7.309 0a1.83 1.83 0 0 0-1.288.533 1.828 1.828 0 0 0 0 2.58c.341.34.812.533 1.288.533.482 0 .952-.193 1.291-.533a1.832 1.832 0 0 0 0-2.58c-.34-.34-.81-.533-1.291-.533zm7.309 0c-.48 0-.949.193-1.289.533-.34.339-.534.809-.534 1.29s.194.951.534 1.29c.341.34.811.533 1.289.533s.948-.193 1.289-.533c.339-.34.536-.81.536-1.29 0-.481-.197-.951-.536-1.29-.34-.34-.81-.533-1.289-.533z"/></g><path d="M55.308 95.491c.913.006 1.589.209 2.029.611.439.4.657.924.652 1.563-.004.545-.157.958-.46 1.243-.304.284-.737.425-1.3.42-.174 0-.287-.018-.334-.052-.049-.035-.072-.105-.071-.212 0-.097-.005-.224-.019-.379s-.049-.308-.106-.453-.149-.271-.275-.372c-.126-.104-.301-.155-.523-.157a1.31 1.31 0 0 0-.832.279.889.889 0 0 0-.37.732.802.802 0 0 0 .294.644c.197.167.447.321.747.464.3.144.627.288.98.437.354.148.681.343.98.582.299.241.548.537.745.895.196.355.293.806.289 1.35a3.35 3.35 0 0 1-.22 1.201 2.722 2.722 0 0 1-.633.973c-.279.274-.63.487-1.054.642-.424.151-.917.226-1.48.222a5.295 5.295 0 0 1-1.347-.169 4.974 4.974 0 0 1-1.076-.408 2.641 2.641 0 0 1-.717-.528c-.173-.192-.259-.364-.258-.52.003-.642.043-1.102.118-1.384.075-.28.208-.421.403-.419.136 0 .278.06.428.178.15.116.321.25.515.396.194.147.418.279.675.399.257.117.555.178.896.179.136.002.27-.01.401-.033a1.09 1.09 0 0 0 .35-.122.726.726 0 0 0 .25-.23.628.628 0 0 0 .097-.35.705.705 0 0 0-.273-.585 3.132 3.132 0 0 0-.697-.405 40.638 40.638 0 0 0-.908-.385 3.581 3.581 0 0 1-.908-.545 2.7 2.7 0 0 1-.693-.887c-.182-.361-.271-.823-.268-1.388.004-.631.126-1.163.367-1.601.241-.435.55-.789.925-1.063.376-.275.8-.471 1.272-.589a5.621 5.621 0 0 1 1.409-.174zm10.993 12.286c0 .077-.044.178-.133.298s-.213.24-.374.362a2.552 2.552 0 0 1-.571.311 1.935 1.935 0 0 1-.722.124 1.588 1.588 0 0 1-.829-.216 2.206 2.206 0 0 1-.616-.58c-.178-.243-.333-.534-.468-.87s-.262-.694-.386-1.073c-.622-.072-1.14-.241-1.556-.506-.416-.265-.746-.604-.991-1.013s-.42-.875-.522-1.394a8.247 8.247 0 0 1-.149-1.671 9.624 9.624 0 0 1 .271-2.221 5.657 5.657 0 0 1 .858-1.933 4.373 4.373 0 0 1 1.561-1.359c.644-.341 1.437-.508 2.379-.501.69.004 1.277.107 1.762.311.484.202.877.492 1.181.868.303.377.524.84.661 1.39.138.549.204 1.174.199 1.874-.003.505-.051 1.062-.143 1.668s-.261 1.193-.507 1.76a5.499 5.499 0 0 1-1.008 1.538c-.426.458-.979.797-1.662 1.017.145.146.318.312.521.497s.396.364.58.536c.183.172.34.327.47.47.13.14.194.245.194.313zm-2.57-9.985c-.438-.003-.788.125-1.053.387a2.64 2.64 0 0 0-.611.956 5.12 5.12 0 0 0-.292 1.186 9.483 9.483 0 0 0-.08 1.072c-.005.846.118 1.474.374 1.89.254.415.615.623 1.081.626.408.003.742-.137 1.001-.423a3.11 3.11 0 0 0 .612-1.03c.148-.402.249-.825.299-1.266.052-.442.079-.823.082-1.145.005-.699-.099-1.249-.31-1.649-.211-.399-.579-.601-1.103-.604zm13.397 3.588a16.12 16.12 0 0 1-.137.969 7.058 7.058 0 0 1-.278 1.077 5.379 5.379 0 0 1-.494 1.052 3.582 3.582 0 0 1-.794.906 3.715 3.715 0 0 1-1.163.634c-.453.156-.99.233-1.611.229-.632-.004-1.17-.098-1.616-.28s-.808-.433-1.088-.752a2.868 2.868 0 0 1-.604-1.104 4.573 4.573 0 0 1-.18-1.342c.001-.214.012-.503.035-.868.022-.362.052-.758.088-1.186.036-.429.076-.872.118-1.335l.119-1.315c.037-.418.07-.795.103-1.131.031-.333.052-.589.064-.763.01-.185.035-.304.074-.357.039-.053.097-.079.175-.079l.802.006c.593.003.99.132 1.193.387.202.255.302.629.298 1.124 0 .029-.009.157-.025.386s-.037.508-.063.838c-.026.33-.054.689-.081 1.077-.027.391-.054.759-.081 1.108-.027.35-.048.656-.064.918-.017.263-.025.437-.026.523-.001.166.005.355.019.569.013.213.05.418.112.613.062.194.164.358.304.49.139.131.341.199.603.2.33.003.601-.107.811-.329.211-.224.373-.488.486-.799.114-.311.194-.625.24-.946.045-.32.079-.582.1-.786.041-.495.086-1.006.134-1.529a239.4 239.4 0 0 0 .127-1.471c.037-.457.066-.856.088-1.195.022-.341.033-.572.034-.7.001-.194.017-.317.046-.371.03-.052.094-.079.19-.079l.801.006c.33.002.59.033.779.093.188.061.332.139.428.235a.632.632 0 0 1 .179.338c.024.126.036.258.035.393-.001.127-.011.365-.027.714l-.058 1.195c-.023.447-.051.908-.084 1.384-.033.476-.071.894-.111 1.253zm3.043 4.771c-.545-.004-.933-.113-1.165-.328-.231-.214-.345-.522-.344-.921.002-.194.019-.526.051-.998.033-.471.075-1.008.128-1.609.052-.602.104-1.238.158-1.908.053-.67.105-1.302.158-1.894.053-.593.096-1.112.127-1.56.031-.444.048-.752.049-.917.002-.146.08-.217.235-.217l.802.006c.593.004.99.132 1.192.387.202.254.302.629.298 1.124 0 .049-.009.204-.024.467-.018.262-.041.593-.073.989l-.103 1.333-.113 1.507-.11 1.508-.104 1.333c-.031.398-.059.731-.079.998-.021.268-.038.43-.047.488-.012.076-.03.133-.061.167-.029.033-.087.051-.175.05l-.8-.005zm9.589.065c-.399-.002-.694-.062-.888-.179a1.083 1.083 0 0 1-.42-.44 187.787 187.787 0 0 1-1.4-2.997c-.437-.955-.878-1.92-1.329-2.894.003 1.049.011 2.093.022 3.132s.025 2.084.038 3.133c-.002.146-.08.219-.234.217l-.802-.004c-.554-.004-.945-.117-1.171-.337-.228-.22-.34-.544-.336-.973.001-.116.009-.312.024-.589.018-.276.041-.604.073-.984l.102-1.244a3324.365 3324.365 0 0 0 .278-3.212l.102-1.23c.027-.334.047-.621.058-.86l.034-.705c.001-.146.079-.219.234-.218l1.166.009c.32.002.583.04.786.114.204.074.372.175.5.303.132.126.235.271.312.431.077.161.148.329.216.505.229.604.431 1.125.607 1.562.178.438.332.825.467 1.155.134.331.25.619.35.862.101.245.194.469.281.673s.172.4.259.592c.086.19.177.397.271.622.004-.573.006-1.164.005-1.771l-.002-1.778-.003-1.669a96.775 96.775 0 0 1 .002-1.443c.001-.088.083-.131.249-.13l.801.006c.321.003.576.036.765.101a.996.996 0 0 1 .442.279.928.928 0 0 1 .208.445c.033.177.049.375.047.599-.001.243-.019.613-.051 1.115-.033.498-.07 1.061-.113 1.682a266.662 266.662 0 0 1-.422 5.207c-.037.395-.061.625-.069.693-.001.077-.028.135-.082.174a.304.304 0 0 1-.183.057l-1.194-.011zm8.274-8.25l-.608 8.084c-.011.146-.064.219-.162.218l-.801-.006c-.544-.004-.932-.112-1.165-.329-.231-.214-.346-.521-.343-.92.001-.146.011-.363.025-.655.017-.291.042-.634.073-1.028l.103-1.28c.037-.461.077-.927.12-1.398.041-.471.081-.939.118-1.406l.104-1.296-2.331-.015c-.107-.002-.161-.069-.16-.206l.05-.816c.011-.126.033-.248.068-.371a.941.941 0 0 1 .17-.326.827.827 0 0 1 .3-.231c.122-.058.271-.086.446-.084l6.513.043a.31.31 0 0 1 .161.046c.047.029.07.082.07.159l-.063.859c-.021.292-.103.526-.246.706-.142.179-.431.266-.868.264l-1.574-.012z" fill="#FFF"/></svg>