<svg xmlns="http://www.w3.org/2000/svg" width="150" height="150" viewBox="0 0 150 150"><path fill="#9C8AC1" d="M117.333 103.609V92.527a2.751 2.751 0 0 0-2.753-2.752h-8.373V78.793a2.752 2.752 0 0 0-2.752-2.752H92.559V64.933c0-1.52-1.23-2.753-2.754-2.753H62.393a2.752 2.752 0 0 0-2.752 2.753v11.108H48.743a2.752 2.752 0 0 0-2.753 2.752v10.982h-8.373a2.752 2.752 0 0 0-2.753 2.752v10.869l82.469.213zm-5.505-5.504h-19.27v-2.824h19.27v2.824zm-24.775-2.824v2.861c-4.613.365-7.902 3.469-9.43 5.254H65.146v-8.115h21.907zm13.648-5.506H78.68v-8.229h22.021v8.229zM65.146 67.686h21.905v8.355H65.146v-8.355zm-13.65 13.86h21.678v8.229H51.496v-8.229zM40.371 95.281h19.27v8.115h-19.27v-8.115z"/><path fill="#FFF" d="M106.207 82.895H121.5V111h-15.293zM30.5 81h15.469v31.5H30.5z"/><path fill="#FFF" d="M37 95h79.25v28.25H37z"/></svg>