<svg xmlns="http://www.w3.org/2000/svg" width="150" height="150" viewBox="0 0 150 150"><path fill="#FFF" d="M80.167 37.833h28v16.712h-28zm-24.578 27.61H133.5v14.724H55.589z"/><path fill="#FFF" d="M66.624 50.5h54.543v17.696H66.624zM4.868 45.167h34.18v35H4.868z"/><path fill="#9C8AC1" d="M94.545 80.167L102.5 75h43.75L123 111.75H24.25l-21-31.583z"/><g fill="#9C8AC1"><path d="M149.643 72.501a2.754 2.754 0 0 0-2.396-1.396h-11.914v-5.577a2.751 2.751 0 0 0-2.753-2.752h-8.373V51.793a2.752 2.752 0 0 0-2.752-2.752h-10.896V37.933a2.752 2.752 0 0 0-2.754-2.753H80.393a2.752 2.752 0 0 0-2.752 2.753v11.108H66.743a2.752 2.752 0 0 0-2.753 2.752v10.983h-8.373a2.752 2.752 0 0 0-2.753 2.752v10.869H41.739V46.288a2.753 2.753 0 0 0-2.753-2.752H5.953A2.753 2.753 0 0 0 3.2 46.288v30.108h-.447a2.754 2.754 0 1 0-2.368 4.159l16.733 28.211c2.073 3.452 6.672 6.057 10.699 6.057h91.033c4.026 0 8.627-2.604 10.7-6.059l20.06-33.489a2.762 2.762 0 0 0 .033-2.774zm-19.815-1.396h-19.27v-2.824h19.27v2.824zm-24.775-2.824v2.861c-4.613.366-7.902 3.47-9.43 5.254H83.146v-8.115h21.907zm13.648-5.505H96.68v-8.23h22.021v8.23zm-35.555-22.09h21.906v8.355H83.146v-8.355zm-13.65 13.86h21.678v8.23H69.496v-8.23zM58.371 68.281h19.27v8.115h-19.27v-8.115zM8.706 49.041h27.527v5.305h-5.505a2.754 2.754 0 0 0 0 5.506h5.505v5.591h-5.505a2.753 2.753 0 1 0 0 5.505h5.505v5.448H8.706V49.041zm116.123 56.889c-1.063 1.771-3.913 3.385-5.979 3.385H27.818c-2.066 0-4.916-1.612-5.972-3.371L7.586 81.9h89.38c.916 0 1.781-.467 2.292-1.229.027-.04 2.776-4.062 6.691-4.062h26.171c.149.025.303.041.459.041.155 0 .31-.016.459-.041h9.351l-17.56 29.321z"/><path d="M22.47 54.346a2.77 2.77 0 0 0-1.948.805 2.77 2.77 0 0 0-.805 1.948c0 .723.292 1.432.805 1.944a2.778 2.778 0 0 0 1.948.809c.726 0 1.435-.296 1.948-.809s.805-1.222.805-1.944a2.77 2.77 0 0 0-.805-1.948 2.77 2.77 0 0 0-1.948-.805zm-8.145 0a2.76 2.76 0 0 0-2.753 2.753c0 .723.296 1.432.809 1.944a2.776 2.776 0 0 0 1.944.809c.726 0 1.435-.296 1.947-.809s.805-1.222.805-1.944a2.77 2.77 0 0 0-.805-1.948 2.768 2.768 0 0 0-1.947-.805zm8.145 11.097a2.77 2.77 0 0 0-1.948.805 2.77 2.77 0 0 0-.805 1.948c0 .723.292 1.431.805 1.944a2.774 2.774 0 0 0 1.948.809c.726 0 1.435-.296 1.948-.809a2.766 2.766 0 0 0 .805-1.944 2.77 2.77 0 0 0-.805-1.948 2.77 2.77 0 0 0-1.948-.805zm-8.145 0c-.723 0-1.432.292-1.944.805a2.778 2.778 0 0 0-.809 1.948c0 .723.296 1.431.809 1.944a2.772 2.772 0 0 0 1.944.809 2.77 2.77 0 0 0 1.947-.809 2.77 2.77 0 0 0 .805-1.944 2.77 2.77 0 0 0-.805-1.948 2.768 2.768 0 0 0-1.947-.805zm27.476 22.05c-.722 0-1.431.292-1.944.806a2.77 2.77 0 0 0-.809 1.947c0 .723.296 1.436.809 1.947a2.76 2.76 0 0 0 1.944.805 2.77 2.77 0 0 0 1.948-.805 2.773 2.773 0 0 0 .805-1.947c0-.727-.292-1.436-.805-1.947a2.771 2.771 0 0 0-1.948-.806zm11.035 0c-.726 0-1.435.292-1.947.806-.513.512-.805 1.221-.805 1.947s.292 1.436.805 1.947a2.78 2.78 0 0 0 1.947.805 2.77 2.77 0 0 0 1.948-.805 2.773 2.773 0 0 0 .805-1.947c0-.727-.292-1.436-.805-1.947a2.771 2.771 0 0 0-1.948-.806zm11.035 0c-.726 0-1.435.292-1.947.806a2.773 2.773 0 0 0-.805 1.947c0 .722.292 1.436.805 1.947a2.772 2.772 0 0 0 1.947.805c.723 0 1.432-.292 1.944-.805a2.787 2.787 0 0 0 .809-1.947c0-.723-.296-1.436-.809-1.947a2.765 2.765 0 0 0-1.944-.806zm11.032 0a2.756 2.756 0 0 0-2.753 2.753 2.76 2.76 0 0 0 4.702 1.947 2.778 2.778 0 0 0 .806-1.947c0-.727-.294-1.436-.806-1.947a2.775 2.775 0 0 0-1.949-.806zm11.035 0c-.723 0-1.434.292-1.946.806-.513.512-.806 1.221-.806 1.947s.293 1.436.806 1.947a2.776 2.776 0 0 0 1.946.805c.728 0 1.437-.292 1.949-.805a2.777 2.777 0 0 0 .805-1.947c0-.727-.293-1.436-.805-1.947a2.775 2.775 0 0 0-1.949-.806zm11.035 0c-.726 0-1.434.292-1.947.806-.512.512-.805 1.221-.805 1.947s.293 1.436.805 1.947a2.775 2.775 0 0 0 1.947.805c.723 0 1.432-.292 1.945-.805a2.781 2.781 0 0 0 .809-1.947 2.77 2.77 0 0 0-.809-1.947 2.773 2.773 0 0 0-1.945-.806z"/></g><path d="M42.617 85.638c1.378.01 2.399.317 3.063.923.663.605.992 1.394.985 2.361-.006.821-.237 1.446-.695 1.876-.458.43-1.112.642-1.962.636-.264-.001-.433-.028-.505-.08-.074-.053-.109-.158-.108-.32a6.177 6.177 0 0 0-.029-.572 2.48 2.48 0 0 0-.16-.683 1.344 1.344 0 0 0-.415-.563c-.19-.155-.454-.234-.791-.237a1.984 1.984 0 0 0-1.256.421 1.344 1.344 0 0 0-.558 1.107c-.002.396.146.72.445.971.298.252.675.485 1.128.701s.947.435 1.48.658a6.243 6.243 0 0 1 1.479.879c.452.364.827.812 1.124 1.351.296.537.443 1.216.437 2.037a5.081 5.081 0 0 1-.332 1.813c-.216.563-.535 1.053-.956 1.468s-.951.738-1.591.969c-.64.229-1.385.342-2.235.336a8.085 8.085 0 0 1-2.033-.256c-.623-.165-1.164-.37-1.624-.615s-.822-.512-1.083-.8c-.262-.288-.392-.548-.391-.783.006-.968.066-1.664.179-2.089.113-.425.315-.636.609-.634.205.001.42.091.647.268.226.178.485.378.777.6.292.223.631.422 1.019.602.387.179.838.27 1.351.272.206.002.407-.016.605-.051s.375-.097.529-.184c.154-.087.28-.203.376-.349a.94.94 0 0 0 .146-.527 1.065 1.065 0 0 0-.412-.883 4.7 4.7 0 0 0-1.052-.613c-.424-.185-.881-.38-1.371-.58a5.366 5.366 0 0 1-1.37-.824 4.085 4.085 0 0 1-1.047-1.338c-.275-.544-.41-1.242-.404-2.093.006-.953.191-1.759.555-2.416a4.881 4.881 0 0 1 1.397-1.607 5.47 5.47 0 0 1 1.92-.89 8.551 8.551 0 0 1 2.129-.262zm16.595 18.548c0 .117-.068.268-.201.45a2.66 2.66 0 0 1-.564.546c-.244.182-.53.338-.861.468s-.694.192-1.09.19c-.484-.004-.901-.113-1.252-.327a3.3 3.3 0 0 1-.929-.876c-.27-.368-.504-.806-.707-1.313s-.396-1.048-.583-1.62c-.938-.109-1.721-.364-2.349-.764a4.59 4.59 0 0 1-1.497-1.528 6.545 6.545 0 0 1-.789-2.106 12.5 12.5 0 0 1-.225-2.521c.007-1.144.144-2.261.408-3.352a8.494 8.494 0 0 1 1.296-2.917 6.602 6.602 0 0 1 2.356-2.053c.972-.514 2.169-.767 3.592-.757 1.041.007 1.927.163 2.659.469s1.326.743 1.784 1.311c.458.568.791 1.267.998 2.097.207.83.307 1.773.3 2.829a17.808 17.808 0 0 1-.215 2.519 10.623 10.623 0 0 1-.766 2.656 8.247 8.247 0 0 1-1.522 2.322c-.643.692-1.479 1.204-2.508 1.534.218.221.481.472.787.752.306.28.597.55.875.809.276.259.514.495.71.709.196.212.294.37.293.473zm-3.88-15.074c-.66-.005-1.189.189-1.588.583a3.974 3.974 0 0 0-.922 1.445 7.675 7.675 0 0 0-.441 1.79 14.031 14.031 0 0 0-.121 1.617c-.008 1.276.179 2.227.564 2.853.384.626.929.941 1.632.946.616.004 1.12-.208 1.512-.639.391-.43.699-.949.923-1.556a8.288 8.288 0 0 0 .453-1.911c.078-.667.118-1.242.122-1.727.007-1.056-.149-1.885-.467-2.489-.32-.602-.875-.907-1.667-.912zm20.225 5.417a23.37 23.37 0 0 1-.208 1.462c-.092.534-.23 1.076-.418 1.625s-.437 1.079-.747 1.59a5.399 5.399 0 0 1-1.198 1.367c-.486.4-1.071.719-1.755.956-.683.237-1.495.353-2.433.347-.954-.007-1.767-.148-2.439-.423-.672-.276-1.22-.654-1.642-1.134a4.345 4.345 0 0 1-.913-1.667 6.94 6.94 0 0 1-.272-2.026c.002-.322.02-.759.053-1.309.033-.55.078-1.146.133-1.792.055-.646.115-1.315.178-2.013l.179-1.989c.056-.63.107-1.198.155-1.704.047-.505.079-.891.096-1.154.016-.278.054-.458.113-.538s.147-.12.265-.12l1.21.009c.895.006 1.495.2 1.8.584.305.384.456.95.45 1.698 0 .044-.013.237-.037.581-.024.346-.056.767-.096 1.266-.04.498-.081 1.04-.121 1.627-.041.587-.082 1.143-.122 1.671s-.073.99-.097 1.386c-.025.396-.037.659-.038.791-.002.25.007.536.027.859.02.322.076.631.17.925.093.294.246.541.457.74.211.199.515.301.911.303.498.004.906-.162 1.224-.497.318-.336.562-.736.734-1.205.171-.469.292-.944.361-1.429.069-.482.12-.879.151-1.187.063-.747.131-1.518.203-2.309.071-.792.135-1.532.191-2.221.056-.689.101-1.29.133-1.803.033-.514.05-.865.051-1.057.002-.293.025-.479.07-.561.045-.079.141-.12.287-.119l1.209.009c.498.003.891.05 1.176.14s.501.209.646.356.236.317.271.508c.035.191.053.39.052.595-.002.19-.016.55-.041 1.077-.025.528-.056 1.13-.089 1.804-.034.675-.075 1.371-.124 2.089a42.243 42.243 0 0 1-.166 1.892zm4.593 7.203c-.822-.005-1.407-.171-1.757-.496-.35-.324-.522-.788-.519-1.39.002-.293.027-.794.076-1.506.049-.711.112-1.521.192-2.43.079-.908.159-1.869.239-2.881s.16-1.964.239-2.858c.08-.894.144-1.679.192-2.354.048-.673.073-1.135.075-1.385.001-.22.119-.329.354-.328l1.21.009c.895.006 1.494.2 1.8.584s.456.949.45 1.697c0 .073-.013.308-.037.703-.025.396-.062.896-.109 1.495a646.605 646.605 0 0 0-.326 4.288 705.668 705.668 0 0 1-.446 5.795 13.74 13.74 0 0 1-.07.736c-.017.117-.046.202-.091.252-.044.052-.132.077-.264.076l-1.208-.007zm14.476.098c-.602-.004-1.048-.095-1.34-.272a1.622 1.622 0 0 1-.634-.664c-.752-1.575-1.457-3.082-2.114-4.524s-1.326-2.898-2.006-4.37c.004 1.584.016 3.161.034 4.73l.057 4.73c-.002.22-.12.329-.354.327l-1.21-.008c-.836-.006-1.426-.175-1.768-.507-.343-.333-.512-.821-.507-1.467.001-.176.014-.473.038-.891.025-.417.062-.912.109-1.484s.1-1.198.155-1.88c.057-.683.116-1.374.18-2.078l.239-2.771c.062-.732.114-1.352.154-1.857s.069-.938.086-1.298l.052-1.066c.001-.22.119-.33.354-.328l1.76.012c.484.004.88.061 1.187.173a2.091 2.091 0 0 1 1.225 1.108c.116.243.224.497.325.762.346.912.651 1.698.919 2.36l.703 1.743a221.984 221.984 0 0 0 .952 2.316c.131.31.261.607.391.895s.267.6.411.938c.006-.865.009-1.756.008-2.673l-.004-2.684-.005-2.52c-.003-.807-.001-1.532.003-2.178.001-.132.126-.198.376-.196l1.21.009c.483.003.868.054 1.154.151.284.097.508.237.668.422.159.185.265.408.314.673.049.265.073.565.07.902-.002.367-.028.928-.077 1.684-.049.754-.106 1.602-.171 2.539-.065.938-.138 1.91-.218 2.914a685.931 685.931 0 0 1-.228 2.781c-.072.851-.136 1.572-.191 2.165-.055.595-.091.943-.105 1.046a.31.31 0 0 1-.123.263.456.456 0 0 1-.275.086l-1.804-.013zm12.492-12.456l-.918 12.205c-.017.22-.099.329-.245.328l-1.21-.008c-.821-.006-1.406-.171-1.756-.497-.35-.324-.523-.787-.52-1.389.002-.22.016-.55.04-.99.025-.439.062-.957.109-1.55.049-.594.101-1.239.156-1.935.056-.696.116-1.4.18-2.111.062-.711.123-1.418.179-2.122l.156-1.957-3.52-.023c-.162-.002-.241-.104-.24-.31l.074-1.232c.016-.19.051-.376.104-.56.052-.184.138-.348.256-.493s.27-.263.453-.35a1.54 1.54 0 0 1 .673-.127l9.834.066a.46.46 0 0 1 .241.067c.073.045.108.125.108.243l-.097 1.297c-.033.439-.156.795-.37 1.064-.215.27-.652.402-1.312.398l-2.375-.014z" fill="#FFF"/></svg>