<svg xmlns="http://www.w3.org/2000/svg" width="1920" height="150" viewBox="0 0 1920 150"><path fill="none" stroke="#119A48" stroke-width="21" stroke-miterlimit="10" d="M0 82.5c21.818 0 21.818 14 43.636 14 21.816 0 21.816-14 43.632-14 21.817 0 21.817 14 43.635 14 21.816 0 21.816-14 43.633-14 21.817 0 21.817 14 43.633 14 21.818 0 21.818-14 43.636-14 21.816 0 21.816 14 43.633 14s21.817-14 43.634-14c21.818 0 21.818 14 43.637 14 21.817 0 21.817-14 43.634-14s21.817 14 43.634 14 21.817-14 43.635-14c21.816 0 21.816 14 43.635 14s21.818-14 43.636-14 21.818 14 43.638 14c21.818 0 21.818-14 43.637-14 21.817 0 21.817 14 43.636 14s21.818-14 43.635-14c21.817 0 21.817 14 43.636 14 21.817 0 21.817-14 43.635-14 21.818 0 21.818 14 43.638 14 21.818 0 21.818-14 43.636-14s21.818 14 43.638 14c21.818 0 21.817-14 43.636-14 21.814 0 21.814 14 43.632 14 21.815 0 21.815-14 43.631-14s21.816 14 43.633 14c21.817 0 21.817-14 43.636-14s21.818 14 43.639 14c21.817 0 21.817-14 43.635-14 21.818 0 21.818 14 43.637 14s21.818-14 43.637-14c21.817 0 21.816 14 43.636 14s21.818-14 43.638-14c21.82 0 21.819 14 43.641 14 21.82 0 21.819-14 43.64-14s21.819 14 43.64 14c21.816 0 21.816-14 43.633-14 21.82 0 21.82 14 43.641 14s21.818-14 43.641-14c21.82 0 21.82 14 43.643 14 21.82 0 21.82-14 43.641-14 21.823 0 21.823 14 43.646 14 21.822 0 21.822-14 43.646-14"/><path fill="#119A48" d="M-23 92h1998v95H-23z"/></svg>