<svg xmlns="http://www.w3.org/2000/svg" width="1920" height="150" viewBox="0 0 1920 150"><path fill="none" stroke="#9C8AC1" stroke-width="21" stroke-miterlimit="10" d="M-7319.5 82.5c186.357 0 186.357 14 372.718 14 186.346 0 186.346-14 372.69-14 186.351 0 186.351 14 372.71 14 186.345 0 186.345-14 372.699-14 186.351 0 186.351 14 372.695 14 186.359 0 186.359-14 372.724-14 186.342 0 186.342 14 372.693 14 186.352 0 186.352-14 372.707-14 186.36 0 186.36 14 372.728 14 186.354 0 186.354-14 372.704-14 186.354 0 186.354 14 372.701 14 186.354 0 186.354-14 372.719-14 186.339 0 186.339 14 372.71 14 186.374 0 186.356-14 372.721-14s186.364 14 372.744 14c186.355 0 186.355-14 372.728-14 186.348 0 186.348 14 372.719 14s186.365-14 372.711-14c186.354 0 186.354 14 372.718 14 186.356 0 186.356-14 372.721-14 186.354 0 186.354 14 372.735 14 186.363 0 186.363-14 372.719-14 186.364 0 186.364 14 372.746 14 186.355 0 186.347-14 372.719-14 186.331 0 186.331 14 372.686 14 186.34 0 186.34-14 372.679-14 186.348 0 186.348 14 372.701 14 186.348 0 186.348-14 372.721-14 186.364 0 186.355 14 372.744 14 186.354 0 186.354-14 372.71-14 186.365 0 186.365 14 372.735 14 186.366 0 186.357-14 372.729-14 186.349 0 186.349 14 372.72 14 186.381 0 186.364-14 372.735-14 186.381 0 186.372 14 372.771 14 186.371 0 186.371-14 372.751-14 186.39 0 186.374 14 372.762 14 186.339 0 186.339-14 372.696-14 186.381 0 186.381 14 372.76 14 186.389 0 186.363-14 372.76-14 186.383 0 186.383 14 372.787 14 186.371 0 186.371-14 372.768-14 186.4 0 186.4 14 372.805 14 186.393 0 186.393-14 372.803-14"/><path fill="#9C8AC1" d="M-23 92h1998v95H-23z"/></svg>