<svg xmlns="http://www.w3.org/2000/svg" width="85" height="60" viewBox="0 0 85 60"><path fill="#FFC6DF" d="M4.378 6.75c-.596 0-1.084.376-1.084.954v43.241c0 .58.489 1.053 1.087 1.053h1.005c.006-.046.123-.264.134-.307 1.268-5.381 6.329-9.282 12.034-9.282 5.573 0 10.475 3.633 11.924 8.836.15.71.681.753.785.753h21.133c.596 0 1.082-.471 1.082-1.05V7.799c0-.579-.484-1.049-1.082-1.049H4.378z"/><path fill="#FFC6DF" d="M5.672 53.602c-.033 0-.112-.002-.146-.004l-.844.002c-2.239 0-4.057-1.697-4.057-3.779V8.907c0-2.085 1.818-3.782 4.057-3.782h46.145c2.231 0 4.051 1.784 4.051 3.87v40.821c0 2.086-1.819 3.781-4.054 3.781H30.059c-1.072-.017-3.182-.632-3.662-2.863-1.048-3.619-4.671-6.211-8.789-6.211-4.215 0-7.956 2.783-8.892 6.615-.22 1.662-1.692 2.464-3.044 2.464zM4.679 8.003c-.585 0-1.064.356-1.064.903v40.912c0 .545.479.994 1.067.994h.986c.005-.043.121-.25.131-.291 1.245-5.09 6.211-8.781 11.81-8.781 5.469 0 10.281 3.438 11.702 8.359.148.674.668.713.771.713h20.74c.585 0 1.062-.447 1.062-.992V8.997c0-.547-.475-.993-1.062-.993L4.679 8.003z"/><path fill="#9C8AC1" d="M61 13.5V35h22.625l-10-21.5z"/><path fill="#FFC6DF" d="M84.93 34.366s-.094-2.277-.289-3.392c-.164-.95-1.086-2.875-1.086-2.875l-7.3-14.78c-.95-1.653-3.114-2.944-4.558-2.944H60.785c-1.438 0-2.605 1.271-2.605 2.837v36.462c0 1.565 1.168 2.84 2.605 2.84h.643s.949-.136 1.305-1.429c.985-4.278 4.515-7.464 8.748-7.464 4.146 0 7.612 3.055 8.684 7.193.441 1.752 2.23 1.697 2.23 1.697 1.439 0 2.605-1.272 2.605-2.839l-.07-15.306zm-6.604-3.819H65.312c-1.098 0-1.989-.976-1.989-2.163V17.308c0-1.194.894-2.165 1.989-2.165h4.363c2.483 0 4.117 2.186 4.631 3.239l5.064 10.26c.523 1.047.055 1.905-1.044 1.905z"/><path fill="none" d="M4.75 19.25h44.624v14.5H4.75z"/><path d="M8.988 19.51c.815 0 1.419.178 1.813.533.395.355.592.819.592 1.392 0 .485-.135.855-.403 1.111-.269.256-.655.383-1.157.383-.156 0-.256-.015-.299-.045-.043-.03-.065-.093-.065-.188 0-.087-.007-.199-.02-.338a1.44 1.44 0 0 0-.098-.403.8.8 0 0 0-.247-.331c-.113-.092-.269-.137-.468-.137a1.17 1.17 0 0 0-.741.253.796.796 0 0 0-.325.657c0 .233.089.425.267.571.178.147.401.284.669.41.269.125.561.253.877.383.316.131.609.302.878.514.269.213.492.477.669.793.177.316.267.718.267 1.203 0 .381-.063.738-.189 1.072a2.414 2.414 0 0 1-.559.871c-.247.247-.559.439-.936.578S8.698 29 8.195 29c-.433 0-.834-.048-1.202-.143a4.508 4.508 0 0 1-.963-.357 2.372 2.372 0 0 1-.643-.469c-.156-.169-.234-.322-.234-.461 0-.572.033-.983.098-1.235.065-.251.184-.377.357-.377.122 0 .249.052.384.156.134.104.288.221.461.351.173.13.375.247.604.352.229.104.496.155.799.155.121 0 .241-.011.357-.032a.993.993 0 0 0 .312-.11.63.63 0 0 0 .221-.208.562.562 0 0 0 .084-.312c0-.217-.083-.391-.247-.521s-.373-.249-.624-.357-.522-.221-.812-.338-.561-.277-.812-.481c-.251-.203-.459-.466-.624-.786s-.247-.732-.247-1.235c0-.562.106-1.04.319-1.43.212-.39.485-.709.819-.955.333-.247.71-.425 1.131-.533s.839-.164 1.255-.164zm9.88 10.894c0 .069-.039.158-.117.267a1.6 1.6 0 0 1-.331.325 2.217 2.217 0 0 1-.507.279 1.717 1.717 0 0 1-.644.117c-.286 0-.533-.063-.741-.188a1.944 1.944 0 0 1-.553-.514 3.546 3.546 0 0 1-.422-.773 16.04 16.04 0 0 1-.351-.956c-.555-.061-1.019-.208-1.391-.441a2.706 2.706 0 0 1-.89-.897 3.886 3.886 0 0 1-.475-1.241 7.339 7.339 0 0 1-.143-1.488c0-.677.076-1.337.228-1.983.151-.646.403-1.222.754-1.729s.812-.914 1.385-1.222c.572-.308 1.278-.462 2.119-.462.615 0 1.14.089 1.573.267.433.178.786.434 1.06.767.273.334.472.746.598 1.235s.188 1.047.188 1.671c0 .45-.039.946-.117 1.488a6.291 6.291 0 0 1-.442 1.573 4.862 4.862 0 0 1-.891 1.378c-.377.411-.869.717-1.476.916.13.13.286.277.468.442.182.164.355.322.52.475.165.151.306.29.423.416.116.124.175.218.175.278zm-2.353-8.892c-.39 0-.702.117-.936.352-.234.233-.414.52-.54.857a4.58 4.58 0 0 0-.253 1.06 8.44 8.44 0 0 0-.065.956c0 .754.115 1.315.345 1.684.229.368.552.552.968.552.364 0 .661-.127.891-.383.229-.256.409-.563.54-.923.13-.36.216-.737.26-1.132.043-.394.065-.734.065-1.021 0-.624-.095-1.113-.286-1.469-.192-.356-.521-.533-.989-.533zm11.973 3.12c-.026.261-.065.549-.117.865a6.182 6.182 0 0 1-.241.962 4.685 4.685 0 0 1-.436.942 3.191 3.191 0 0 1-1.736 1.383c-.401.145-.88.216-1.435.216-.563 0-1.044-.08-1.443-.24a2.56 2.56 0 0 1-.975-.663 2.56 2.56 0 0 1-.546-.981 4.102 4.102 0 0 1-.169-1.196c0-.19.008-.448.026-.773.017-.325.041-.678.071-1.06.03-.381.063-.777.098-1.189l.098-1.177c.03-.372.058-.708.084-1.007.026-.299.043-.526.052-.683.009-.165.03-.271.065-.318s.086-.072.156-.072h.715c.529 0 .884.113 1.066.339.182.225.273.559.273 1.001a69.671 69.671 0 0 1-.072 1.092c-.022.295-.043.615-.065.962-.022.347-.043.676-.065.988-.022.312-.039.585-.052.818-.013.234-.02.391-.02.469 0 .147.007.316.02.507.013.19.048.372.104.546.056.173.147.318.273.436s.306.175.54.175a.944.944 0 0 0 .722-.299c.186-.199.329-.438.429-.715s.169-.559.208-.845c.039-.286.067-.521.084-.702l.111-1.365c.039-.468.073-.905.104-1.312.03-.407.054-.763.071-1.066.018-.303.026-.511.026-.624 0-.173.013-.283.039-.331.026-.048.083-.072.169-.072h.715c.294 0 .526.026.695.078a.938.938 0 0 1 .384.208.57.57 0 0 1 .162.3 1.9 1.9 0 0 1 .033.351c0 .112-.006.325-.02.637l-.045 1.066a76.25 76.25 0 0 1-.065 1.234c-.026.421-.057.795-.091 1.115zm2.743 4.238c-.486 0-.832-.096-1.04-.286s-.312-.464-.312-.819c0-.173.013-.47.039-.89.026-.421.061-.899.104-1.437s.086-1.105.13-1.703c.043-.599.086-1.161.13-1.69.043-.528.078-.992.104-1.391s.039-.672.039-.819c0-.13.069-.195.208-.195h.715c.529 0 .884.113 1.066.339.182.225.273.559.273 1.001 0 .043-.007.182-.02.416-.013.233-.033.528-.059.884a274.92 274.92 0 0 0-.175 2.535c-.03.459-.061.907-.091 1.345l-.084 1.189-.065.891a8.554 8.554 0 0 1-.039.436.287.287 0 0 1-.052.149c-.026.031-.078.046-.156.046h-.715zm8.553 0c-.355 0-.62-.052-.793-.156a.951.951 0 0 1-.377-.39c-.451-.928-.873-1.815-1.268-2.665-.394-.85-.795-1.707-1.202-2.574.008.937.021 1.868.039 2.795l.052 2.795c0 .13-.069.195-.208.195h-.715c-.494 0-.843-.098-1.047-.293-.204-.194-.305-.482-.305-.864 0-.104.006-.279.02-.526.013-.247.032-.539.059-.877l.084-1.112c.03-.402.062-.812.097-1.229l.13-1.638.084-1.099c.021-.299.037-.555.045-.767l.026-.631c0-.13.069-.195.208-.195h1.04c.286 0 .52.033.702.098.182.065.332.154.448.267.117.113.21.24.28.384.069.143.134.292.195.448.208.538.392 1.001.552 1.392l.423 1.026c.121.295.228.551.318.768s.175.416.253.598.156.357.234.526c.078.169.161.354.247.553 0-.512-.002-1.038-.006-1.58l-.013-1.586-.013-1.488c-.004-.477-.007-.905-.007-1.287 0-.078.074-.117.221-.117h.715c.286 0 .514.028.683.085s.301.139.396.247.158.24.188.396.045.334.045.533c0 .217-.013.548-.039.994a183.645 183.645 0 0 1-.208 3.224 469.32 469.32 0 0 1-.124 1.645c-.039.503-.074.93-.104 1.281-.031.351-.05.557-.059.617 0 .069-.024.121-.072.156a.272.272 0 0 1-.162.052h-1.062zm7.332-7.41l-.494 7.215c-.009.13-.056.195-.144.195h-.715c-.484 0-.832-.096-1.039-.286-.209-.19-.312-.464-.312-.819 0-.13.007-.324.02-.585.014-.26.033-.565.059-.916s.055-.732.084-1.145c.031-.411.063-.827.098-1.247a285.777 285.777 0 0 0 .182-2.412h-2.079c-.096 0-.143-.061-.143-.182l.039-.729c.008-.112.028-.223.058-.331s.08-.206.15-.293a.769.769 0 0 1 .266-.208.908.908 0 0 1 .396-.078h5.811c.053 0 .1.014.144.039.044.026.065.074.065.144l-.053.767c-.018.26-.088.471-.214.631s-.384.24-.774.24h-1.405z" fill="#9C8AC1"/><path fill="none" stroke="#9C8AC1" stroke-width="3" stroke-miterlimit="10" d="M62.5 10.375v-5.25"/><circle fill="#8E9F9F" cx="59.938" cy="3.799" r=".771"/><circle fill="#8E9F9F" cx="55.648" cy="1.271" r=".771"/><circle fill="#8E9F9F" cx="56.752" cy="3.799" r="1.104"/><circle fill="#8E9F9F" cx="51.791" cy="2.382" r="1.417"/><path fill="none" stroke="#9C8AC1" stroke-width="3" stroke-miterlimit="10" d="M5.041 32.75c4.432 0 4.432 2 8.863 2 4.433 0 4.433-2 8.867-2 4.432 0 4.432 2 8.864 2 4.435 0 4.435-2 8.87-2s4.435 2 8.87 2"/></svg>