<svg xmlns="http://www.w3.org/2000/svg" width="1600" height="198" viewBox="0 0 1600 198"><path fill="none" stroke="#9C8AC1" stroke-width="3" stroke-miterlimit="10" d="M1602.995 157.833c-312.453 0-411.815-73.485-814.796-73.333-401.875 0-502.344 73.333-792.699 73.333V204.5H1603s-.005-29.091-.005-46.667z"/><g fill="#9C8AC1"><path d="M1465.036 109.678a2.757 2.757 0 0 0-2.226-1.653l-11.841-1.323.62-5.543a2.752 2.752 0 0 0-2.43-3.042l-8.321-.93 1.221-10.916a2.753 2.753 0 0 0-2.43-3.041l-10.829-1.21 1.234-11.04a2.753 2.753 0 0 0-2.431-3.042l-27.242-3.046a2.753 2.753 0 0 0-3.042 2.43l-1.234 11.04-10.829-1.211a2.752 2.752 0 0 0-3.042 2.429l-1.22 10.915-8.321-.93a2.751 2.751 0 0 0-3.041 2.429l-1.207 10.802-11.057-1.236 3.344-29.923a2.752 2.752 0 0 0-2.43-3.042l-32.828-3.67a2.754 2.754 0 0 0-3.042 2.43l-3.346 29.923-.444-.05a2.751 2.751 0 1 0-2.815 3.867l13.494 29.896c1.678 3.662 5.96 6.762 9.962 7.209l90.469 10.115c4.001.448 8.861-1.629 11.308-4.832l23.655-31.052c.6-.79.731-1.841.341-2.753zm-19.537-3.588l-19.149-2.142.312-2.808 19.15 2.142-.313 2.808zm-24.307-5.561l-.318 2.844c-4.626-.15-8.239 2.569-9.956 4.174l-12.4-1.387.902-8.064 21.772 2.433zm14.174-3.954l-21.885-2.448.915-8.179 21.885 2.448-.915 8.179zm-32.88-25.905l21.771 2.434-.928 8.303-21.772-2.435.929-8.302zm-15.105 12.258l21.543 2.409-.914 8.178-21.543-2.408.914-8.179zm-12.582 12.414l19.149 2.141-.903 8.065-19.148-2.143.902-8.063zm-47.22-24.64l27.356 3.059-.589 5.271-5.471-.611a2.754 2.754 0 0 0-.612 5.472l5.471.611-.621 5.557-5.47-.611a2.752 2.752 0 1 0-.612 5.471l5.471.612-.605 5.416-27.357-3.06 3.039-27.187zm109.082 69.441c-1.253 1.642-4.265 2.929-6.316 2.699l-90.47-10.115c-2.054-.229-4.705-2.149-5.56-4.015l-11.501-25.477 31.206 3.489 57.621 6.442a2.782 2.782 0 0 0 2.415-.966c.031-.037 3.209-3.729 7.102-3.294l26.008 2.909a2.532 2.532 0 0 0 .912.101l9.293 1.04-20.71 27.187z"/><path d="M1340.668 77.504a2.772 2.772 0 0 0-2.025.583 2.779 2.779 0 0 0-1.016 1.847 2.765 2.765 0 0 0 .583 2.021 2.778 2.778 0 0 0 1.847 1.02 2.775 2.775 0 0 0 2.025-.587 2.77 2.77 0 0 0 1.016-1.843 2.768 2.768 0 0 0-.583-2.025 2.775 2.775 0 0 0-1.847-1.016zm-8.095-.905a2.76 2.76 0 0 0-2.021.584 2.78 2.78 0 0 0-1.021 1.846 2.765 2.765 0 0 0 2.431 3.042 2.775 2.775 0 0 0 2.025-.587 2.774 2.774 0 0 0 1.015-1.843 2.766 2.766 0 0 0-.583-2.026 2.77 2.77 0 0 0-1.846-1.016zm6.862 11.934a2.772 2.772 0 0 0-2.025.583 2.775 2.775 0 0 0-1.016 1.846 2.767 2.767 0 0 0 .583 2.021c.453.567 1.125.94 1.847 1.021a2.779 2.779 0 0 0 2.025-.588 2.772 2.772 0 0 0 1.017-1.843 2.773 2.773 0 0 0-.583-2.024 2.773 2.773 0 0 0-1.848-1.016zm-8.094-.906a2.774 2.774 0 0 0-2.022.584 2.784 2.784 0 0 0-1.02 1.846 2.763 2.763 0 0 0 2.431 3.041 2.767 2.767 0 0 0 2.024-.587 2.766 2.766 0 0 0 1.017-1.842 2.77 2.77 0 0 0-.584-2.025 2.778 2.778 0 0 0-1.846-1.017zm24.855 24.967a2.764 2.764 0 0 0-2.021.584 2.781 2.781 0 0 0-1.02 1.846 2.757 2.757 0 0 0 2.429 3.041c.723.081 1.46-.13 2.024-.583a2.759 2.759 0 0 0 .434-3.871 2.77 2.77 0 0 0-1.846-1.017zm10.968 1.226a2.76 2.76 0 0 0-2.025.584 2.77 2.77 0 0 0-1.017 1.846c-.08.722.131 1.458.583 2.023a2.774 2.774 0 0 0 1.847 1.018 2.768 2.768 0 0 0 2.025-.584 2.768 2.768 0 0 0 1.016-1.846 2.763 2.763 0 0 0-.584-2.024 2.772 2.772 0 0 0-1.845-1.017zm10.966 1.226a2.768 2.768 0 0 0-2.025.585c-.565.45-.936 1.128-1.016 1.846s.132 1.458.583 2.024a2.772 2.772 0 0 0 1.846 1.017c.72.08 1.455-.132 2.022-.584a2.786 2.786 0 0 0 1.02-1.846 2.782 2.782 0 0 0-.587-2.025 2.776 2.776 0 0 0-1.843-1.017zm10.963 1.226a2.754 2.754 0 0 0-3.042 2.43c-.08.721.136 1.458.589 2.025a2.763 2.763 0 0 0 1.841 1.016c.723.079 1.46-.13 2.025-.583a2.77 2.77 0 0 0 1.017-1.847 2.766 2.766 0 0 0-.583-2.024 2.78 2.78 0 0 0-1.847-1.017zm10.967 1.226a2.779 2.779 0 0 0-2.024.584 2.77 2.77 0 0 0-1.017 1.847c-.08.721.132 1.458.583 2.024a2.778 2.778 0 0 0 1.847 1.015 2.756 2.756 0 0 0 2.025-.583 2.775 2.775 0 0 0 1.018-1.845 2.77 2.77 0 0 0-.585-2.023 2.769 2.769 0 0 0-1.847-1.019zm10.965 1.227a2.77 2.77 0 0 0-2.024.585 2.769 2.769 0 0 0-1.015 1.845 2.765 2.765 0 0 0 .583 2.025 2.784 2.784 0 0 0 1.845 1.017 2.769 2.769 0 0 0 2.022-.585 2.77 2.77 0 0 0 1.021-1.844 2.768 2.768 0 0 0-.587-2.025 2.77 2.77 0 0 0-1.845-1.018z"/></g><path fill="#9C8AC1" d="M1320.245 100.027l15.987 33.144 96.267 12.041 28.609-34.029"/><path fill="none" d="M1304.777 79.853l129.233 25.639-7.59 38.254-129.232-25.639z"/><text transform="rotate(6.735 -413.453 11523.016)" fill="#FFF" font-family="'PoetsenOne-Regular'" font-size="22">SQUINT</text></svg>