<svg xmlns="http://www.w3.org/2000/svg" width="1600" height="198" viewBox="0 0 1600 198"><path fill="none" stroke="#9C8AC1" stroke-width="3" stroke-miterlimit="10" d="M1602.995 157.833c-312.453 0-411.815-73.485-814.796-73.333-401.875 0-502.344 73.333-792.699 73.333V204.5H1603s-.005-29.091-.005-46.667z"/><g fill="#9C8AC1"><path d="M1465.036 109.678a2.757 2.757 0 0 0-2.226-1.652l-11.842-1.323.62-5.543a2.752 2.752 0 0 0-2.43-3.042l-8.321-.93 1.221-10.916a2.753 2.753 0 0 0-2.43-3.041l-10.829-1.21 1.234-11.04a2.753 2.753 0 0 0-2.432-3.042l-27.241-3.046a2.753 2.753 0 0 0-3.042 2.43l-1.234 11.04-10.829-1.211a2.752 2.752 0 0 0-3.042 2.429l-1.22 10.915-8.321-.93a2.751 2.751 0 0 0-3.041 2.429l-1.207 10.802-11.057-1.235 3.344-29.923a2.752 2.752 0 0 0-2.43-3.042l-32.828-3.67a2.753 2.753 0 0 0-3.042 2.43l-3.346 29.923-.444-.05a2.755 2.755 0 0 0-2.815 3.868l13.494 29.896c1.678 3.661 5.96 6.762 9.962 7.209l90.47 10.114c4 .449 8.86-1.629 11.308-4.832l23.655-31.051c.6-.793.731-1.844.341-2.756zm-19.537-3.588l-19.149-2.142.312-2.808 19.15 2.142-.313 2.808zm-24.307-5.561l-.318 2.844c-4.626-.15-8.239 2.568-9.956 4.174l-12.4-1.387.902-8.064 21.772 2.433zm14.174-3.954l-21.886-2.448.916-8.179 21.885 2.448-.915 8.179zm-32.88-25.905l21.771 2.434-.928 8.303-21.772-2.435.929-8.302zm-15.105 12.258l21.543 2.409-.914 8.178-21.543-2.408.914-8.179zm-12.582 12.414l19.149 2.141-.903 8.065-19.147-2.144.901-8.062zm-47.22-24.64l27.355 3.059-.589 5.271-5.471-.611a2.754 2.754 0 0 0-.612 5.472l5.472.611-.621 5.557-5.471-.611a2.752 2.752 0 1 0-.611 5.471l5.471.612-.604 5.416-27.357-3.06 3.038-27.187zm109.082 69.441c-1.253 1.643-4.265 2.93-6.316 2.699l-90.47-10.115c-2.054-.229-4.705-2.148-5.561-4.015l-11.5-25.478 31.205 3.49 57.621 6.441a2.782 2.782 0 0 0 2.415-.966c.031-.037 3.209-3.729 7.103-3.294l26.008 2.908a2.532 2.532 0 0 0 .912.102l9.293 1.04-20.71 27.188z"/><path d="M1340.668 77.504a2.772 2.772 0 0 0-2.025.583 2.783 2.783 0 0 0-1.016 1.847 2.765 2.765 0 0 0 .583 2.021 2.778 2.778 0 0 0 1.847 1.02 2.773 2.773 0 0 0 2.025-.587 2.77 2.77 0 0 0 1.016-1.843 2.768 2.768 0 0 0-.583-2.025 2.775 2.775 0 0 0-1.847-1.016zm-8.095-.905a2.759 2.759 0 0 0-2.021.584 2.79 2.79 0 0 0-1.021 1.846 2.765 2.765 0 0 0 2.431 3.042 2.775 2.775 0 0 0 2.025-.587 2.778 2.778 0 0 0 1.015-1.843 2.766 2.766 0 0 0-.583-2.026 2.77 2.77 0 0 0-1.846-1.016zm6.863 11.934a2.77 2.77 0 0 0-2.025.583 2.77 2.77 0 0 0-1.016 1.846 2.766 2.766 0 0 0 .582 2.021c.453.567 1.125.94 1.848 1.021a2.779 2.779 0 0 0 2.025-.588 2.776 2.776 0 0 0 1.017-1.843 2.773 2.773 0 0 0-.583-2.024 2.778 2.778 0 0 0-1.848-1.016zm-8.095-.906a2.77 2.77 0 0 0-2.021.584 2.79 2.79 0 0 0-1.021 1.846 2.763 2.763 0 0 0 2.432 3.041 2.764 2.764 0 0 0 2.023-.587 2.767 2.767 0 0 0 1.018-1.842 2.779 2.779 0 0 0-.584-2.025 2.783 2.783 0 0 0-1.847-1.017zm24.855 24.967c-.718-.08-1.456.131-2.021.584s-.938 1.124-1.02 1.846a2.757 2.757 0 0 0 4.453 2.459 2.755 2.755 0 0 0-1.412-4.889zm10.968 1.226a2.76 2.76 0 0 0-2.025.584 2.772 2.772 0 0 0-1.017 1.846c-.08.723.131 1.458.583 2.023a2.778 2.778 0 0 0 1.847 1.018 2.767 2.767 0 0 0 2.025-.584 2.76 2.76 0 0 0 .432-3.87 2.768 2.768 0 0 0-1.845-1.017zm10.966 1.226a2.764 2.764 0 0 0-2.024.585 2.776 2.776 0 0 0-1.017 1.846c-.08.719.132 1.459.583 2.024a2.772 2.772 0 0 0 1.846 1.017 2.77 2.77 0 0 0 2.022-.584 2.792 2.792 0 0 0 1.02-1.846 2.782 2.782 0 0 0-.587-2.025 2.776 2.776 0 0 0-1.843-1.017zm10.963 1.225a2.754 2.754 0 0 0-3.042 2.431c-.08.721.137 1.458.589 2.024a2.764 2.764 0 0 0 1.841 1.017 2.769 2.769 0 0 0 2.025-.583c.567-.453.938-1.126 1.018-1.848s-.132-1.459-.584-2.023a2.79 2.79 0 0 0-1.847-1.018zm10.968 1.227a2.777 2.777 0 0 0-2.024.584 2.766 2.766 0 0 0-1.017 1.848c-.08.721.132 1.457.582 2.023a2.777 2.777 0 0 0 1.848 1.015 2.756 2.756 0 0 0 2.025-.583 2.776 2.776 0 0 0 1.018-1.845 2.765 2.765 0 0 0-.585-2.022 2.77 2.77 0 0 0-1.847-1.02zm10.964 1.227a2.764 2.764 0 0 0-2.024.586 2.77 2.77 0 0 0-1.015 1.844c-.082.723.131 1.46.583 2.025s1.125.936 1.845 1.018a2.766 2.766 0 0 0 2.021-.586c.567-.45.94-1.123 1.021-1.844a2.762 2.762 0 0 0-2.431-3.043z"/></g><path fill="#9C8AC1" d="M1320.245 100.027l15.987 33.144 96.267 12.041 28.609-34.028"/><text transform="rotate(6.735 -413.453 11523.016)" fill="#FFF" font-family="'PoetsenOne-Regular'" font-size="22">SQUINT</text></svg>