<svg xmlns="http://www.w3.org/2000/svg" width="1600" height="198" viewBox="0 0 1600 198"><linearGradient id="a" gradientUnits="userSpaceOnUse" x1="-158.747" y1="173.566" x2="-158.747" y2="172.457" gradientTransform="matrix(-1600 0 0 -198.0004 -253195.5 34344.57)"><stop offset="0" stop-color="#57bbc1" stop-opacity=".25"/><stop offset="1" stop-color="#119a48"/></linearGradient><path fill="url(#a)" d="M1599.995 121C1289 121 1190.102-.25 789 0 389 0 289 121 0 121v77h1600s-.005-48-.005-77z"/><g fill="#9C8AC1"><path d="M1528.007 82.876a2.755 2.755 0 0 0-2.128-1.777l-11.746-1.996.935-5.498a2.753 2.753 0 0 0-2.253-3.175l-8.255-1.402 1.84-10.828a2.753 2.753 0 0 0-2.253-3.174l-10.742-1.825 1.86-10.951a2.753 2.753 0 0 0-2.254-3.175l-27.024-4.591a2.752 2.752 0 0 0-3.175 2.253l-1.861 10.951-10.742-1.825a2.752 2.752 0 0 0-3.175 2.252l-1.84 10.828-8.255-1.402a2.752 2.752 0 0 0-3.174 2.252l-1.82 10.714-10.969-1.863 5.043-29.684a2.753 2.753 0 0 0-2.253-3.175l-32.566-5.533a2.754 2.754 0 0 0-3.176 2.252l-5.043 29.683-.44-.075a2.749 2.749 0 0 0-2.591.97 2.75 2.75 0 0 0-.44 2.73l11.771 30.615c1.466 3.751 5.564 7.089 9.534 7.763l89.747 15.248c3.97.675 8.939-1.122 11.563-4.181l25.385-29.655a2.755 2.755 0 0 0 .497-2.726zm-19.301-4.695l-18.997-3.228.473-2.785 18.997 3.228-.473 2.785zm-23.952-6.934l-.479 2.82c-4.609-.412-8.372 2.097-10.177 3.601l-12.301-2.09 1.359-8 21.598 3.669zm14.377-3.142l-21.71-3.688 1.379-8.114 21.71 3.688-1.379 8.114zm-31.353-27.733l21.598 3.669-1.399 8.237-21.598-3.669 1.399-8.237zM1452 51.75l21.371 3.631-1.378 8.114-21.372-3.631L1452 51.75zm-13.269 11.678l18.996 3.228-1.359 8-18.996-3.228 1.359-8zm-45.74-27.288l27.138 4.611-.889 5.229-5.427-.922a2.753 2.753 0 0 0-.922 5.427l5.427.922-.937 5.512-5.427-.922a2.752 2.752 0 1 0-.922 5.427l5.427.922-.913 5.372-27.139-4.611 4.584-26.967zm104.953 75.536c-1.345 1.568-4.425 2.682-6.461 2.336l-89.746-15.248c-2.037-.346-4.576-2.414-5.323-4.325l-10.031-26.09 30.956 5.259 57.161 9.712a2.78 2.78 0 0 0 2.466-.827c.034-.035 3.417-3.54 7.277-2.884l25.801 4.384c.144.05.292.091.446.117.153.026.307.037.459.037l9.218 1.566-22.223 25.963z"/><path d="M1405.672 43.676a2.774 2.774 0 0 0-2.056.467 2.775 2.775 0 0 0-1.12 1.786 2.77 2.77 0 0 0 .468 2.051 2.78 2.78 0 0 0 1.785 1.124 2.775 2.775 0 0 0 2.057-.471 2.77 2.77 0 0 0 1.118-1.782 2.77 2.77 0 0 0-.467-2.055 2.775 2.775 0 0 0-1.785-1.12zm-8.03-1.364a2.765 2.765 0 0 0-2.052.468 2.777 2.777 0 0 0-1.123 1.785 2.77 2.77 0 0 0 .472 2.052 2.772 2.772 0 0 0 1.781 1.123 2.771 2.771 0 0 0 2.056-.471 2.766 2.766 0 0 0 1.119-1.782 2.77 2.77 0 0 0-.468-2.056 2.774 2.774 0 0 0-1.785-1.119zm6.17 12.305a2.776 2.776 0 0 0-2.056.467c-.59.42-.998 1.07-1.119 1.786a2.77 2.77 0 0 0 .468 2.051 2.774 2.774 0 0 0 1.785 1.124 2.777 2.777 0 0 0 2.056-.471 2.769 2.769 0 0 0 1.119-1.782 2.77 2.77 0 0 0-.467-2.055 2.767 2.767 0 0 0-1.786-1.12zm-8.029-1.365a2.766 2.766 0 0 0-2.052.468 2.77 2.77 0 0 0-1.123 1.785 2.77 2.77 0 0 0 .472 2.052 2.77 2.77 0 0 0 1.781 1.123 2.774 2.774 0 0 0 2.055-.471 2.766 2.766 0 0 0 1.12-1.782 2.775 2.775 0 0 0-.468-2.055 2.775 2.775 0 0 0-1.785-1.12zm23.395 26.341a2.763 2.763 0 0 0-2.052.469 2.766 2.766 0 0 0-1.123 1.784 2.777 2.777 0 0 0 .471 2.055 2.76 2.76 0 0 0 1.781 1.119 2.764 2.764 0 0 0 2.055-.467 2.759 2.759 0 0 0 .652-3.84 2.764 2.764 0 0 0-1.784-1.12zm10.879 1.848a2.767 2.767 0 0 0-2.055.468 2.764 2.764 0 0 0-1.12 1.785c-.121.715.048 1.463.468 2.054s1.072.999 1.785 1.12a2.766 2.766 0 0 0 2.055-.467 2.767 2.767 0 0 0 1.12-1.785 2.77 2.77 0 0 0-.468-2.055 2.773 2.773 0 0 0-1.785-1.12zm10.879 1.849a2.763 2.763 0 0 0-2.055.468c-.591.418-.998 1.072-1.119 1.785s.048 1.463.467 2.055a2.77 2.77 0 0 0 1.785 1.12 2.768 2.768 0 0 0 2.052-.468 2.778 2.778 0 0 0 1.123-1.784c.121-.713-.051-1.465-.471-2.056s-1.07-.999-1.782-1.12zm10.876 1.847a2.76 2.76 0 0 0-2.052.469 2.77 2.77 0 0 0-1.123 1.784 2.757 2.757 0 0 0 4.308 2.707 2.763 2.763 0 0 0 1.12-1.785 2.766 2.766 0 0 0-.468-2.055 2.777 2.777 0 0 0-1.785-1.12zm10.878 1.848a2.777 2.777 0 0 0-2.055.468 2.774 2.774 0 0 0-1.12 1.785 2.774 2.774 0 0 0 .468 2.054 2.775 2.775 0 0 0 1.785 1.12 2.77 2.77 0 0 0 2.056-.467 2.77 2.77 0 0 0 1.12-1.785 2.77 2.77 0 0 0-.468-2.055 2.777 2.777 0 0 0-1.786-1.12zm10.879 1.849a2.77 2.77 0 0 0-2.055.468 2.768 2.768 0 0 0-1.119 1.785 2.777 2.777 0 0 0 .467 2.055c.421.591 1.07.998 1.785 1.12a2.771 2.771 0 0 0 2.053-.468 2.771 2.771 0 0 0 1.123-1.784 2.771 2.771 0 0 0-.471-2.055 2.77 2.77 0 0 0-1.783-1.121z"/></g><path fill="#9C8AC1" d="M1384 65l14.074 34 95.426 17.5 30.5-32.346"/></svg>