<svg xmlns="http://www.w3.org/2000/svg" width="1920" height="150" viewBox="0 0 1920 150"><path fill="none" stroke="#FFF" stroke-width="21" stroke-miterlimit="10" d="M-5884 81.5c170.988 0 170.988 14 341.98 14 170.979 0 170.979-14 341.955-14 170.982 0 170.982 14 341.973 14 170.978 0 170.978-14 341.963-14 170.983 0 170.983 14 341.959 14 170.99 0 170.99-14 341.985-14 170.975 0 170.975 14 341.958 14 170.983 0 170.983-14 341.97-14 170.991 0 170.991 14 341.989 14 170.986 0 170.986-14 341.968-14 170.985 0 170.985 14 341.964 14 170.985 0 170.985-14 341.981-14 170.972 0 170.972 14 341.973 14 171.004 0 170.987-14 341.983-14s170.995 14 342.004 14c170.986 0 170.986-14 341.989-14 170.98 0 170.98 14 341.981 14 171 0 170.995-14 341.974-14 170.985 0 170.985 14 341.979 14 170.987 0 170.987-14 341.983-14 170.985 0 170.985 14 341.996 14 170.993 0 170.993-14 341.98-14 170.995 0 170.995 14 342.006 14 170.986 0 170.979-14 341.981-14 170.964 0 170.964 14 341.951 14 170.973 0 170.973-14 341.943-14 170.98 0 170.98 14 341.965 14 170.98 0 170.98-14 341.982-14 170.995 0 170.986 14 342.004 14 170.985 0 170.985-14 341.974-14 170.995 0 170.995 14 341.995 14 170.996 0 170.988-14 341.989-14 170.981 0 170.981 14 341.983 14 171.01 0 170.993-14 341.994-14 171.011 0 171.004 14 342.029 14 171.002 0 171.002-14 342.011-14 171.019 0 171.004 14 342.021 14 170.971 0 170.971-14 341.96-14 171.011 0 171.011 14 342.019 14 171.018 0 170.994-14 342.019-14 171.012 0 171.012 14 342.044 14 171 0 171-14 342.025-14 171.027 0 171.027 14 342.059 14 171.021 0 171.021-14 342.059-14"/><path fill="#FFF" d="M-23 88h1998v95H-23V88z"/></svg>