<?xml version="1.0" encoding="utf-8"?>
<!-- Generator: Adobe Illustrator 16.0.0, SVG Export Plug-In . SVG Version: 6.00 Build 0)  -->
<!DOCTYPE svg PUBLIC "-//W3C//DTD SVG 1.1//EN" "http://www.w3.org/Graphics/SVG/1.1/DTD/svg11.dtd">
<svg version="1.1" id="Layer_1" xmlns="http://www.w3.org/2000/svg" xmlns:xlink="http://www.w3.org/1999/xlink" x="0px" y="0px"
	 width="2000px" height="250px" viewBox="0 0 2000 250" enable-background="new 0 0 2000 250" xml:space="preserve">
<g>
	<path fill="none" stroke="#9C8AC1" stroke-width="50" stroke-miterlimit="10" d="M0,132c38.459,0,38.459,18,76.919,18
		c38.46,0,38.46-18,76.919-18c38.461,0,38.461,18,76.923,18c38.46,0,38.46-18,76.92-18c38.461,0,38.461,18,76.922,18
		c38.46,0,38.46-18,76.92-18s38.46,18,76.921,18s38.461-18,76.922-18s38.461,18,76.922,18s38.461-18,76.921-18
		c38.462,0,38.462,18,76.924,18c38.461,0,38.461-18,76.922-18c38.461,0,38.461,18,76.923,18c38.462,0,38.462-18,76.925-18
		c38.459,0,38.459,18,76.918,18s38.459-18,76.919-18c38.462,0,38.462,18,76.924,18s38.462-18,76.925-18
		c38.461,0,38.461,18,76.923,18c38.463,0,38.463-18,76.926-18c38.462,0,38.462,18,76.925,18s38.463-18,76.925-18
		s38.462,18,76.925,18s38.463-18,76.927-18c38.466,0,38.466,18,76.931,18s38.465-18,76.93-18"/>
</g>
<rect y="154" fill="#9C8AC1" width="1998" height="95"/>
</svg>
