<?xml version="1.0" encoding="utf-8"?>
<!-- Generator: Adobe Illustrator 16.0.0, SVG Export Plug-In . SVG Version: 6.00 Build 0)  -->
<!DOCTYPE svg PUBLIC "-//W3C//DTD SVG 1.1//EN" "http://www.w3.org/Graphics/SVG/1.1/DTD/svg11.dtd">
<svg version="1.1" id="Capa_1" xmlns="http://www.w3.org/2000/svg" xmlns:xlink="http://www.w3.org/1999/xlink" x="0px" y="0px"
	 width="150px" height="150px" viewBox="0 0 150 150" enable-background="new 0 0 150 150" xml:space="preserve">
<rect x="80.182" y="63.824" fill="#FFFFFF" width="18.547" height="11.071"/>
<rect x="63.901" y="82.113" fill="#FFFFFF" width="51.607" height="9.753"/>
<rect x="71.21" y="72.215" fill="#FFFFFF" width="36.13" height="11.722"/>
<rect x="30.303" y="68.683" fill="#FFFFFF" width="22.641" height="23.184"/>
<polygon fill="#9C8AC1" points="89.705,91.866 94.976,88.444 123.955,88.444 108.555,112.788 43.143,112.788 29.231,91.866 "/>
<g>
	<path fill="#9C8AC1" d="M126.202,86.789c-0.322-0.571-0.93-0.925-1.586-0.925h-7.893V82.17c0-1.007-0.815-1.823-1.823-1.823h-5.547
		v-7.275c0-1.007-0.816-1.823-1.822-1.823h-7.218v-7.357c0-1.007-0.814-1.824-1.824-1.824H80.332c-1.009,0-1.824,0.817-1.824,1.824
		v7.357H71.29c-1.007,0-1.823,0.816-1.823,1.823v7.275H63.92c-1.008,0-1.824,0.816-1.824,1.823v7.199h-7.369V69.425
		c0-1.007-0.817-1.823-1.824-1.823H31.022c-1.007,0-1.824,0.816-1.824,1.823v19.944h-0.296c-0.655,0-1.261,0.351-1.585,0.922
		c-0.324,0.568-0.318,1.269,0.016,1.832l11.084,18.688c1.373,2.287,4.419,4.013,7.087,4.013h60.301c2.667,0,5.714-1.725,7.088-4.015
		l13.288-22.183C126.518,88.062,126.526,87.361,126.202,86.789z M113.077,85.864h-12.764v-1.871h12.764V85.864z M96.667,83.993
		v1.896c-3.058,0.242-5.235,2.299-6.247,3.48h-8.265v-5.376H96.667L96.667,83.993z M105.707,80.347H91.12v-5.452h14.587V80.347z
		 M82.155,65.714h14.511v5.534H82.155V65.714z M73.113,74.895h14.359v5.452H73.113V74.895L73.113,74.895z M65.744,83.993h12.764
		v5.376H65.744V83.993z M32.845,71.249H51.08v3.515h-3.646c-1.007,0-1.824,0.817-1.824,1.824c0,1.006,0.817,1.823,1.824,1.823h3.646
		v3.703h-3.646c-1.007,0-1.824,0.816-1.824,1.823c0,1.008,0.817,1.823,1.824,1.823h3.646v3.609H32.845V71.249z M109.767,108.933
		c-0.705,1.174-2.592,2.242-3.961,2.242h-60.3c-1.368,0-3.256-1.068-3.956-2.233l-9.446-15.927h20.8H91.31
		c0.606,0,1.181-0.31,1.519-0.814c0.018-0.026,1.839-2.69,4.432-2.69h17.336c0.099,0.017,0.2,0.028,0.304,0.028
		s0.205-0.012,0.305-0.028h6.193L109.767,108.933z"/>
	<path fill="#9C8AC1" d="M41.963,74.763c-0.481,0-0.95,0.193-1.291,0.533c-0.34,0.34-0.533,0.81-0.533,1.291
		c0,0.479,0.193,0.948,0.533,1.287c0.34,0.34,0.81,0.536,1.291,0.536c0.48,0,0.951-0.196,1.291-0.536
		c0.34-0.34,0.533-0.81,0.533-1.287c0-0.481-0.193-0.951-0.533-1.291C42.914,74.957,42.443,74.763,41.963,74.763z"/>
	<path fill="#9C8AC1" d="M36.567,74.763c-0.479,0-0.95,0.193-1.288,0.533c-0.339,0.34-0.536,0.81-0.536,1.291
		c0,0.479,0.196,0.948,0.536,1.287c0.34,0.34,0.81,0.536,1.288,0.536c0.481,0,0.951-0.196,1.29-0.536s0.533-0.81,0.533-1.287
		c0-0.481-0.193-0.951-0.533-1.291C37.518,74.957,37.048,74.763,36.567,74.763z"/>
	<path fill="#9C8AC1" d="M41.963,82.113c-0.481,0-0.95,0.193-1.291,0.533c-0.34,0.34-0.533,0.81-0.533,1.29
		c0,0.479,0.193,0.948,0.533,1.289c0.34,0.339,0.81,0.535,1.291,0.535c0.48,0,0.951-0.196,1.291-0.535
		c0.34-0.341,0.533-0.81,0.533-1.289c0-0.48-0.193-0.95-0.533-1.29C42.914,82.307,42.443,82.113,41.963,82.113z"/>
	<path fill="#9C8AC1" d="M36.567,82.113c-0.479,0-0.948,0.193-1.288,0.533c-0.339,0.34-0.536,0.81-0.536,1.29
		c0,0.479,0.196,0.948,0.536,1.289c0.34,0.339,0.81,0.535,1.288,0.535c0.481,0,0.951-0.196,1.29-0.535
		c0.339-0.341,0.533-0.81,0.533-1.289c0-0.48-0.193-0.95-0.533-1.29S37.048,82.113,36.567,82.113z"/>
	<path fill="#9C8AC1" d="M54.768,96.72c-0.478,0-0.947,0.193-1.287,0.533c-0.34,0.339-0.537,0.809-0.537,1.29
		c0,0.479,0.196,0.951,0.537,1.29c0.337,0.34,0.81,0.533,1.287,0.533c0.481,0,0.951-0.193,1.291-0.533
		c0.339-0.34,0.533-0.81,0.533-1.29c0-0.481-0.194-0.951-0.533-1.29C55.719,96.913,55.249,96.72,54.768,96.72z"/>
	<path fill="#9C8AC1" d="M62.078,96.72c-0.481,0-0.951,0.193-1.29,0.533c-0.34,0.339-0.533,0.809-0.533,1.29s0.193,0.951,0.533,1.29
		c0.339,0.34,0.811,0.533,1.29,0.533c0.481,0,0.95-0.193,1.29-0.533s0.534-0.81,0.534-1.29c0-0.481-0.194-0.951-0.534-1.29
		C63.028,96.913,62.559,96.72,62.078,96.72z"/>
	<path fill="#9C8AC1" d="M69.387,96.72c-0.481,0-0.95,0.193-1.29,0.533c-0.34,0.339-0.534,0.812-0.534,1.29s0.194,0.951,0.534,1.29
		c0.34,0.34,0.809,0.533,1.29,0.533c0.479,0,0.949-0.193,1.288-0.533c0.339-0.34,0.535-0.812,0.535-1.29s-0.196-0.951-0.535-1.29
		C70.336,96.913,69.866,96.72,69.387,96.72z"/>
	<path fill="#9C8AC1" d="M76.695,96.72c-0.479,0-0.951,0.193-1.289,0.533c-0.34,0.339-0.536,0.809-0.536,1.29
		s0.196,0.951,0.536,1.29c0.337,0.34,0.809,0.533,1.289,0.533c0.48,0,0.95-0.193,1.29-0.533c0.339-0.34,0.534-0.81,0.534-1.29
		c0-0.481-0.195-0.951-0.534-1.29C77.646,96.913,77.176,96.72,76.695,96.72z"/>
	<path fill="#9C8AC1" d="M84.004,96.72c-0.479,0-0.949,0.193-1.288,0.533c-0.341,0.339-0.534,0.809-0.534,1.29
		s0.193,0.951,0.534,1.29c0.341,0.34,0.812,0.533,1.288,0.533c0.482,0,0.952-0.193,1.291-0.533c0.34-0.34,0.533-0.81,0.533-1.29
		c0-0.481-0.193-0.951-0.533-1.29C84.955,96.913,84.485,96.72,84.004,96.72z"/>
	<path fill="#9C8AC1" d="M91.313,96.72c-0.48,0-0.949,0.193-1.289,0.533c-0.34,0.339-0.534,0.809-0.534,1.29s0.194,0.951,0.534,1.29
		c0.341,0.34,0.811,0.533,1.289,0.533s0.948-0.193,1.289-0.533c0.339-0.34,0.536-0.81,0.536-1.29c0-0.481-0.197-0.951-0.536-1.29
		C92.262,96.913,91.792,96.72,91.313,96.72z"/>
</g>
<g id="Layer_1_1_">
	<g display="none">
		<path display="inline" fill="#9C8AC1" d="M125.67,85.37c-0.323-0.571-0.93-0.925-1.586-0.925l-7.894-0.005l0.003-3.693
			c0.001-1.008-0.815-1.824-1.823-1.825l-5.545-0.003l0.003-7.275c0.001-1.007-0.816-1.824-1.822-1.824l-7.219-0.003l0.005-7.358
			c0-1.008-0.815-1.825-1.823-1.825l-18.158-0.01c-1.008,0-1.823,0.815-1.825,1.822l-0.003,7.358L70.764,69.8
			c-1.006-0.001-1.824,0.814-1.825,1.821l-0.003,7.276l-5.546-0.004c-1.008,0-1.824,0.816-1.824,1.823l-0.003,7.199l-7.37-0.004
			l0.009-19.944c0.001-1.008-0.815-1.824-1.822-1.824L30.5,66.131c-1.007,0-1.824,0.815-1.825,1.823l-0.011,19.943h-0.297
			c-0.656,0-1.261,0.351-1.584,0.921c-0.325,0.569-0.319,1.269,0.015,1.833l11.073,18.691c1.373,2.288,4.419,4.017,7.086,4.018
			l60.303,0.031c2.665,0.004,5.713-1.72,7.089-4.01l13.299-22.174C125.984,86.643,125.993,85.942,125.67,85.37z M112.545,84.439
			L99.78,84.431v-1.87l12.766,0.007L112.545,84.439z M96.135,82.558l-0.001,1.896c-3.056,0.239-5.235,2.294-6.25,3.478l-8.265-0.006
			l0.004-5.374L96.135,82.558L96.135,82.558z M105.177,78.917l-14.588-0.009l0.004-5.452l14.588,0.009L105.177,78.917z
			 M81.633,64.271l14.511,0.008l-0.002,5.534l-14.513-0.009L81.633,64.271z M72.587,73.447l14.359,0.008l-0.002,5.451l-14.36-0.008
			L72.587,73.447L72.587,73.447z M65.213,82.541l12.764,0.007l-0.005,5.377l-12.762-0.009L65.213,82.541z M32.321,69.779
			l18.233,0.01l-0.002,3.514l-3.646-0.002c-1.007,0-1.824,0.815-1.826,1.823c0,1.007,0.816,1.824,1.823,1.825l3.646,0.002
			l-0.002,3.703l-3.646-0.002c-1.008,0-1.826,0.816-1.826,1.823c0,1.006,0.817,1.823,1.824,1.823l3.647,0.002l-0.002,3.61
			L32.312,87.9L32.321,69.779z M109.222,107.504c-0.705,1.173-2.593,2.242-3.961,2.239l-60.301-0.033
			c-1.368,0-3.254-1.068-3.954-2.234l-9.438-15.93l20.8,0.012l38.406,0.02c0.605,0.001,1.181-0.311,1.52-0.813
			c0.017-0.027,1.839-2.69,4.435-2.688l17.335,0.009c0.099,0.017,0.201,0.028,0.303,0.028c0.105,0,0.206-0.012,0.305-0.028
			l6.195,0.006L109.222,107.504z"/>
		<path display="inline" fill="#9C8AC1" d="M41.436,73.298c-0.48,0-0.95,0.193-1.291,0.533c-0.339,0.339-0.533,0.809-0.533,1.29
			c-0.001,0.479,0.192,0.948,0.532,1.288s0.81,0.536,1.29,0.536c0.481,0,0.951-0.196,1.291-0.535c0.338-0.34,0.534-0.81,0.533-1.287
			c0-0.48-0.193-0.951-0.532-1.291C42.388,73.492,41.917,73.299,41.436,73.298z"/>
		<path display="inline" fill="#9C8AC1" d="M36.041,73.295c-0.479-0.001-0.95,0.192-1.288,0.532c-0.34,0.34-0.536,0.81-0.537,1.291
			c0,0.479,0.195,0.948,0.535,1.287c0.34,0.34,0.81,0.537,1.288,0.537c0.481,0,0.951-0.196,1.291-0.535
			c0.338-0.339,0.534-0.81,0.534-1.288c0-0.481-0.193-0.95-0.532-1.291C36.991,73.489,36.522,73.295,36.041,73.295z"/>
		<path display="inline" fill="#9C8AC1" d="M41.432,80.649c-0.48-0.001-0.951,0.193-1.29,0.532c-0.338,0.339-0.535,0.81-0.534,1.289
			c-0.001,0.48,0.194,0.949,0.531,1.288c0.34,0.34,0.81,0.536,1.291,0.536c0.48,0,0.951-0.195,1.29-0.535
			c0.34-0.34,0.534-0.809,0.535-1.287c0-0.48-0.193-0.95-0.532-1.29C42.383,80.843,41.914,80.648,41.432,80.649z"/>
		<path display="inline" fill="#9C8AC1" d="M36.037,80.646c-0.479,0-0.949,0.193-1.288,0.532c-0.34,0.34-0.537,0.81-0.537,1.29
			c0,0.479,0.195,0.949,0.535,1.288c0.339,0.341,0.808,0.537,1.288,0.537c0.481,0.001,0.95-0.194,1.289-0.534
			c0.34-0.34,0.535-0.81,0.535-1.288c0-0.48-0.193-0.951-0.532-1.29C36.987,80.84,36.518,80.646,36.037,80.646z"/>
		<path display="inline" fill="#9C8AC1" d="M54.229,95.261c-0.478,0.001-0.949,0.193-1.288,0.534
			c-0.339,0.339-0.534,0.808-0.536,1.289c0,0.479,0.195,0.951,0.536,1.289c0.336,0.342,0.809,0.535,1.287,0.535
			c0.482,0.002,0.952-0.192,1.29-0.532c0.339-0.34,0.535-0.81,0.535-1.29c0-0.482-0.192-0.952-0.533-1.289
			C55.18,95.457,54.711,95.262,54.229,95.261z"/>
		<path display="inline" fill="#9C8AC1" d="M61.54,95.266c-0.482,0-0.951,0.192-1.29,0.534c-0.34,0.338-0.534,0.809-0.535,1.288
			c0,0.482,0.193,0.95,0.531,1.289c0.341,0.341,0.812,0.534,1.291,0.534c0.481,0.002,0.951-0.19,1.291-0.532
			c0.339-0.339,0.533-0.808,0.533-1.289s-0.193-0.95-0.533-1.289C62.49,95.462,62.021,95.266,61.54,95.266z"/>
		<path display="inline" fill="#9C8AC1" d="M68.849,95.27c-0.481,0-0.951,0.193-1.291,0.533c-0.339,0.339-0.534,0.812-0.534,1.29
			s0.193,0.951,0.532,1.29c0.34,0.339,0.808,0.535,1.29,0.535c0.481,0,0.948-0.194,1.289-0.533c0.338-0.34,0.535-0.812,0.536-1.291
			c0-0.478-0.195-0.951-0.535-1.29C69.796,95.465,69.328,95.271,68.849,95.27z"/>
		<path display="inline" fill="#9C8AC1" d="M76.156,95.273c-0.479-0.001-0.95,0.193-1.287,0.533c-0.341,0.34-0.536,0.81-0.538,1.29
			c0,0.48,0.197,0.95,0.536,1.289c0.336,0.34,0.808,0.534,1.287,0.535c0.482-0.001,0.952-0.192,1.29-0.533
			c0.341-0.34,0.534-0.809,0.535-1.289c-0.001-0.482-0.193-0.952-0.533-1.29C77.106,95.469,76.638,95.275,76.156,95.273z"/>
		<path display="inline" fill="#9C8AC1" d="M83.467,95.276c-0.479,0.002-0.95,0.192-1.289,0.534c-0.34,0.34-0.535,0.808-0.534,1.29
			c-0.001,0.48,0.192,0.95,0.531,1.29c0.34,0.339,0.811,0.533,1.29,0.531c0.48,0.003,0.95-0.191,1.289-0.531
			c0.339-0.339,0.536-0.808,0.536-1.29c0-0.48-0.194-0.949-0.532-1.287C84.417,95.473,83.947,95.278,83.467,95.276z"/>
		<path display="inline" fill="#9C8AC1" d="M90.774,95.281c-0.479,0-0.948,0.193-1.29,0.534c-0.336,0.338-0.532,0.808-0.532,1.289
			c-0.002,0.481,0.193,0.951,0.532,1.29c0.339,0.34,0.811,0.533,1.288,0.535c0.48,0,0.949-0.194,1.288-0.535
			c0.342-0.337,0.538-0.808,0.538-1.288c0-0.482-0.194-0.95-0.535-1.289C91.724,95.476,91.254,95.281,90.774,95.281z"/>
	</g>
	<g enable-background="new    ">
		<path fill="#FFFFFF" d="M55.308,95.491c0.913,0.006,1.589,0.209,2.029,0.611c0.439,0.4,0.657,0.924,0.652,1.563
			c-0.004,0.545-0.157,0.958-0.46,1.243c-0.304,0.284-0.737,0.425-1.3,0.42c-0.174,0-0.287-0.018-0.334-0.052
			c-0.049-0.035-0.072-0.105-0.071-0.212c0-0.097-0.005-0.224-0.019-0.379s-0.049-0.308-0.106-0.453s-0.149-0.271-0.275-0.372
			c-0.126-0.104-0.301-0.155-0.523-0.157c-0.312-0.002-0.588,0.091-0.832,0.279c-0.245,0.188-0.368,0.432-0.37,0.732
			c-0.001,0.263,0.097,0.476,0.294,0.644c0.197,0.167,0.447,0.321,0.747,0.464c0.3,0.144,0.627,0.288,0.98,0.437
			c0.354,0.148,0.681,0.343,0.98,0.582c0.299,0.241,0.548,0.537,0.745,0.895c0.196,0.355,0.293,0.806,0.289,1.35
			c-0.002,0.428-0.076,0.828-0.22,1.201c-0.143,0.373-0.354,0.697-0.633,0.973c-0.279,0.274-0.63,0.487-1.054,0.642
			c-0.424,0.151-0.917,0.226-1.48,0.222c-0.486-0.002-0.935-0.059-1.347-0.169c-0.413-0.109-0.771-0.245-1.076-0.408
			c-0.304-0.161-0.544-0.339-0.717-0.528c-0.173-0.192-0.259-0.364-0.258-0.52c0.003-0.642,0.043-1.102,0.118-1.384
			c0.075-0.28,0.208-0.421,0.403-0.419c0.136,0,0.278,0.06,0.428,0.178c0.15,0.116,0.321,0.25,0.515,0.396
			c0.194,0.147,0.418,0.279,0.675,0.399c0.257,0.117,0.555,0.178,0.896,0.179c0.136,0.002,0.27-0.01,0.401-0.033
			c0.13-0.023,0.248-0.064,0.35-0.122c0.102-0.057,0.186-0.135,0.25-0.23c0.063-0.097,0.097-0.213,0.097-0.35
			c0.002-0.242-0.089-0.438-0.273-0.585c-0.183-0.146-0.416-0.282-0.697-0.405c-0.281-0.123-0.583-0.252-0.908-0.385
			c-0.325-0.134-0.627-0.315-0.908-0.545c-0.28-0.231-0.512-0.526-0.693-0.887c-0.182-0.361-0.271-0.823-0.268-1.388
			c0.004-0.631,0.126-1.163,0.367-1.601c0.241-0.435,0.55-0.789,0.925-1.063c0.376-0.275,0.8-0.471,1.272-0.589
			C54.374,95.546,54.842,95.488,55.308,95.491z"/>
		<path fill="#FFFFFF" d="M66.301,107.777c0,0.077-0.044,0.178-0.133,0.298s-0.213,0.24-0.374,0.362
			c-0.162,0.119-0.352,0.224-0.571,0.311c-0.219,0.085-0.459,0.126-0.722,0.124c-0.32-0.002-0.597-0.075-0.829-0.216
			c-0.232-0.144-0.438-0.337-0.616-0.58c-0.178-0.243-0.333-0.534-0.468-0.87s-0.262-0.694-0.386-1.073
			c-0.622-0.072-1.14-0.241-1.556-0.506c-0.416-0.265-0.746-0.604-0.991-1.013s-0.42-0.875-0.522-1.394
			c-0.104-0.521-0.153-1.078-0.149-1.671c0.004-0.758,0.096-1.498,0.271-2.221c0.175-0.722,0.461-1.366,0.858-1.933
			c0.397-0.564,0.917-1.019,1.561-1.359c0.644-0.341,1.437-0.508,2.379-0.501c0.69,0.004,1.277,0.107,1.762,0.311
			c0.484,0.202,0.877,0.492,1.181,0.868c0.303,0.377,0.524,0.84,0.661,1.39c0.138,0.549,0.204,1.174,0.199,1.874
			c-0.003,0.505-0.051,1.062-0.143,1.668s-0.261,1.193-0.507,1.76c-0.247,0.565-0.583,1.078-1.008,1.538
			c-0.426,0.458-0.979,0.797-1.662,1.017c0.145,0.146,0.318,0.312,0.521,0.497c0.203,0.185,0.396,0.364,0.58,0.536
			c0.183,0.172,0.34,0.327,0.47,0.47C66.237,107.604,66.301,107.709,66.301,107.777z M63.731,97.792
			c-0.438-0.003-0.788,0.125-1.053,0.387c-0.264,0.261-0.468,0.579-0.611,0.956c-0.143,0.378-0.241,0.774-0.292,1.186
			c-0.051,0.415-0.078,0.771-0.08,1.072c-0.005,0.846,0.118,1.474,0.374,1.89c0.254,0.415,0.615,0.623,1.081,0.626
			c0.408,0.003,0.742-0.137,1.001-0.423c0.259-0.284,0.464-0.629,0.612-1.03c0.148-0.402,0.249-0.825,0.299-1.266
			c0.052-0.442,0.079-0.823,0.082-1.145c0.005-0.699-0.099-1.249-0.31-1.649C64.623,97.997,64.255,97.795,63.731,97.792z"/>
		<path fill="#FFFFFF" d="M77.128,101.38c-0.031,0.291-0.077,0.614-0.137,0.969c-0.062,0.354-0.153,0.713-0.278,1.077
			c-0.124,0.363-0.289,0.714-0.494,1.052c-0.207,0.339-0.471,0.641-0.794,0.906c-0.321,0.265-0.709,0.477-1.163,0.634
			c-0.453,0.156-0.99,0.233-1.611,0.229c-0.632-0.004-1.17-0.098-1.616-0.28s-0.808-0.433-1.088-0.752
			c-0.279-0.316-0.481-0.685-0.604-1.104c-0.124-0.419-0.184-0.867-0.18-1.342c0.001-0.214,0.012-0.503,0.035-0.868
			c0.022-0.362,0.052-0.758,0.088-1.186c0.036-0.429,0.076-0.872,0.118-1.335c0.042-0.46,0.082-0.898,0.119-1.315
			c0.037-0.418,0.07-0.795,0.103-1.131c0.031-0.333,0.052-0.589,0.064-0.763c0.01-0.185,0.035-0.304,0.074-0.357
			c0.039-0.053,0.097-0.079,0.175-0.079l0.802,0.006c0.593,0.003,0.99,0.132,1.193,0.387c0.202,0.255,0.302,0.629,0.298,1.124
			c0,0.029-0.009,0.157-0.025,0.386c-0.016,0.229-0.037,0.508-0.063,0.838c-0.026,0.33-0.054,0.689-0.081,1.077
			c-0.027,0.391-0.054,0.759-0.081,1.108c-0.027,0.35-0.048,0.656-0.064,0.918c-0.017,0.263-0.025,0.437-0.026,0.523
			c-0.001,0.166,0.005,0.355,0.019,0.569c0.013,0.213,0.05,0.418,0.112,0.613c0.062,0.194,0.164,0.358,0.304,0.49
			c0.139,0.131,0.341,0.199,0.603,0.2c0.33,0.003,0.601-0.107,0.811-0.329c0.211-0.224,0.373-0.488,0.486-0.799
			c0.114-0.311,0.194-0.625,0.24-0.946c0.045-0.32,0.079-0.582,0.1-0.786c0.041-0.495,0.086-1.006,0.134-1.529
			c0.047-0.525,0.089-1.015,0.127-1.471c0.037-0.457,0.066-0.856,0.088-1.195c0.022-0.341,0.033-0.572,0.034-0.7
			c0.001-0.194,0.017-0.317,0.046-0.371c0.03-0.052,0.094-0.079,0.19-0.079l0.801,0.006c0.33,0.002,0.59,0.033,0.779,0.093
			c0.188,0.061,0.332,0.139,0.428,0.235c0.096,0.098,0.157,0.211,0.179,0.338c0.024,0.126,0.036,0.258,0.035,0.393
			c-0.001,0.127-0.011,0.365-0.027,0.714c-0.017,0.35-0.037,0.749-0.058,1.195c-0.023,0.447-0.051,0.908-0.084,1.384
			C77.206,100.603,77.168,101.021,77.128,101.38z"/>
		<path fill="#FFFFFF" d="M80.171,106.151c-0.545-0.004-0.933-0.113-1.165-0.328c-0.231-0.214-0.345-0.522-0.344-0.921
			c0.002-0.194,0.019-0.526,0.051-0.998c0.033-0.471,0.075-1.008,0.128-1.609c0.052-0.602,0.104-1.238,0.158-1.908
			c0.053-0.67,0.105-1.302,0.158-1.894c0.053-0.593,0.096-1.112,0.127-1.56c0.031-0.444,0.048-0.752,0.049-0.917
			c0.002-0.146,0.08-0.217,0.235-0.217l0.802,0.006c0.593,0.004,0.99,0.132,1.192,0.387c0.202,0.254,0.302,0.629,0.298,1.124
			c0,0.049-0.009,0.204-0.024,0.467c-0.018,0.262-0.041,0.593-0.073,0.989c-0.031,0.398-0.065,0.843-0.103,1.333
			c-0.037,0.491-0.075,0.992-0.113,1.507c-0.037,0.516-0.074,1.018-0.11,1.508c-0.039,0.49-0.073,0.937-0.104,1.333
			c-0.031,0.398-0.059,0.731-0.079,0.998c-0.021,0.268-0.038,0.43-0.047,0.488c-0.012,0.076-0.03,0.133-0.061,0.167
			c-0.029,0.033-0.087,0.051-0.175,0.05L80.171,106.151z"/>
		<path fill="#FFFFFF" d="M89.76,106.216c-0.399-0.002-0.694-0.062-0.888-0.179c-0.194-0.119-0.333-0.265-0.42-0.44
			c-0.498-1.044-0.965-2.042-1.4-2.997c-0.437-0.955-0.878-1.92-1.329-2.894c0.003,1.049,0.011,2.093,0.022,3.132
			s0.025,2.084,0.038,3.133c-0.002,0.146-0.08,0.219-0.234,0.217l-0.802-0.004c-0.554-0.004-0.945-0.117-1.171-0.337
			c-0.228-0.22-0.34-0.544-0.336-0.973c0.001-0.116,0.009-0.312,0.024-0.589c0.018-0.276,0.041-0.604,0.073-0.984
			c0.031-0.378,0.065-0.792,0.102-1.244c0.038-0.453,0.078-0.91,0.119-1.377c0.064-0.736,0.117-1.349,0.159-1.835
			c0.041-0.485,0.075-0.896,0.102-1.23c0.027-0.334,0.047-0.621,0.058-0.86c0.012-0.236,0.022-0.473,0.034-0.705
			c0.001-0.146,0.079-0.219,0.234-0.218l1.166,0.009c0.32,0.002,0.583,0.04,0.786,0.114c0.204,0.074,0.372,0.175,0.5,0.303
			c0.132,0.126,0.235,0.271,0.312,0.431c0.077,0.161,0.148,0.329,0.216,0.505c0.229,0.604,0.431,1.125,0.607,1.562
			c0.178,0.438,0.332,0.825,0.467,1.155c0.134,0.331,0.25,0.619,0.35,0.862c0.101,0.245,0.194,0.469,0.281,0.673
			s0.172,0.4,0.259,0.592c0.086,0.19,0.177,0.397,0.271,0.622c0.004-0.573,0.006-1.164,0.005-1.771
			c-0.001-0.607-0.001-1.201-0.002-1.778c-0.001-0.579-0.003-1.135-0.003-1.669c-0.003-0.535-0.002-1.016,0.002-1.443
			c0.001-0.088,0.083-0.131,0.249-0.13l0.801,0.006c0.321,0.003,0.576,0.036,0.765,0.101c0.188,0.063,0.336,0.158,0.442,0.279
			c0.105,0.122,0.176,0.271,0.208,0.445c0.033,0.177,0.049,0.375,0.047,0.599c-0.001,0.243-0.019,0.613-0.051,1.115
			c-0.033,0.498-0.07,1.061-0.113,1.682c-0.044,0.621-0.093,1.265-0.145,1.93c-0.054,0.666-0.104,1.28-0.151,1.843
			c-0.048,0.563-0.09,1.042-0.126,1.434c-0.037,0.395-0.061,0.625-0.069,0.693c-0.001,0.077-0.028,0.135-0.082,0.174
			c-0.054,0.038-0.115,0.058-0.183,0.057L89.76,106.216z"/>
		<path fill="#FFFFFF" d="M98.034,97.966l-0.608,8.084c-0.011,0.146-0.064,0.219-0.162,0.218l-0.801-0.006
			c-0.544-0.004-0.932-0.112-1.165-0.329c-0.231-0.214-0.346-0.521-0.343-0.92c0.001-0.146,0.011-0.363,0.025-0.655
			c0.017-0.291,0.042-0.634,0.073-1.028c0.032-0.392,0.066-0.819,0.103-1.28c0.037-0.461,0.077-0.927,0.12-1.398
			c0.041-0.471,0.081-0.939,0.118-1.406c0.038-0.466,0.071-0.897,0.104-1.296l-2.331-0.015c-0.107-0.002-0.161-0.069-0.16-0.206
			l0.05-0.816c0.011-0.126,0.033-0.248,0.068-0.371c0.035-0.121,0.093-0.229,0.17-0.326c0.078-0.096,0.178-0.175,0.3-0.231
			c0.122-0.058,0.271-0.086,0.446-0.084l6.513,0.043c0.06,0,0.111,0.017,0.161,0.046c0.047,0.029,0.07,0.082,0.07,0.159
			l-0.063,0.859c-0.021,0.292-0.103,0.526-0.246,0.706c-0.142,0.179-0.431,0.266-0.868,0.264L98.034,97.966z"/>
	</g>
</g>
<g id="Layer_2">
</g>
</svg>
