<?xml version="1.0" encoding="utf-8"?>
<!-- Generator: Adobe Illustrator 16.0.0, SVG Export Plug-In . SVG Version: 6.00 Build 0)  -->
<!DOCTYPE svg PUBLIC "-//W3C//DTD SVG 1.1//EN" "http://www.w3.org/Graphics/SVG/1.1/DTD/svg11.dtd">
<svg version="1.1" id="Capa_1" xmlns="http://www.w3.org/2000/svg" xmlns:xlink="http://www.w3.org/1999/xlink" x="0px" y="0px"
	 width="150px" height="150px" viewBox="0 0 150 150" enable-background="new 0 0 150 150" xml:space="preserve">
<rect x="80.167" y="37.833" fill="#FFFFFF" width="28" height="16.712"/>
<rect x="55.589" y="65.443" fill="#FFFFFF" width="77.911" height="14.724"/>
<rect x="66.624" y="50.5" fill="#FFFFFF" width="54.543" height="17.696"/>
<rect x="4.868" y="45.167" fill="#FFFFFF" width="34.18" height="35"/>
<polygon fill="#9C8AC1" points="94.545,80.167 102.5,75 146.25,75 123,111.75 24.25,111.75 3.25,80.167 "/>
<g>
	<path fill="#9C8AC1" d="M149.643,72.501c-0.488-0.862-1.404-1.396-2.396-1.396h-11.914v-5.577c0-1.52-1.231-2.752-2.753-2.752
		h-8.373V51.793c0-1.52-1.232-2.752-2.752-2.752h-10.896V37.933c0-1.52-1.231-2.753-2.754-2.753H80.393
		c-1.521,0-2.752,1.233-2.752,2.753v11.108H66.743c-1.521,0-2.753,1.232-2.753,2.752v10.983h-8.373
		c-1.521,0-2.753,1.232-2.753,2.752v10.869H41.739V46.288c0-1.52-1.233-2.752-2.753-2.752H5.953c-1.52,0-2.753,1.232-2.753,2.752
		v30.108H2.753c-0.989,0-1.903,0.53-2.392,1.392c-0.49,0.858-0.48,1.915,0.024,2.767l16.733,28.211
		c2.073,3.452,6.672,6.057,10.699,6.057h91.033c4.026,0,8.627-2.604,10.7-6.059l20.06-33.489
		C150.118,74.423,150.131,73.364,149.643,72.501z M129.828,71.105h-19.27v-2.824h19.27V71.105z M105.053,68.281v2.861
		c-4.613,0.366-7.902,3.47-9.43,5.254H83.146v-8.115H105.053L105.053,68.281z M118.701,62.776H96.68v-8.23h22.021V62.776z
		 M83.146,40.686h21.906v8.355H83.146V40.686z M69.496,54.546h21.678v8.23H69.496V54.546L69.496,54.546z M58.371,68.281h19.27v8.115
		h-19.27V68.281z M8.706,49.041h27.527v5.305h-5.505c-1.52,0-2.753,1.233-2.753,2.753s1.233,2.753,2.753,2.753h5.505v5.591h-5.505
		c-1.52,0-2.753,1.232-2.753,2.753c0,1.52,1.233,2.752,2.753,2.752h5.505v5.448H8.706V49.041z M124.829,105.93
		c-1.063,1.771-3.913,3.385-5.979,3.385H27.818c-2.066,0-4.916-1.612-5.972-3.371L7.586,81.9h31.4h57.98
		c0.916,0,1.781-0.467,2.292-1.229c0.027-0.04,2.776-4.062,6.691-4.062h26.171c0.149,0.025,0.303,0.041,0.459,0.041
		c0.155,0,0.31-0.016,0.459-0.041h9.351L124.829,105.93z"/>
	<path fill="#9C8AC1" d="M22.47,54.346c-0.726,0-1.435,0.292-1.948,0.805c-0.513,0.513-0.805,1.222-0.805,1.948
		c0,0.723,0.292,1.432,0.805,1.944c0.513,0.512,1.222,0.809,1.948,0.809c0.726,0,1.435-0.296,1.948-0.809s0.805-1.222,0.805-1.944
		c0-0.726-0.292-1.435-0.805-1.948C23.905,54.638,23.196,54.346,22.47,54.346z"/>
	<path fill="#9C8AC1" d="M14.325,54.346c-0.723,0-1.435,0.292-1.944,0.805c-0.513,0.513-0.809,1.222-0.809,1.948
		c0,0.723,0.296,1.432,0.809,1.944c0.513,0.512,1.222,0.809,1.944,0.809c0.726,0,1.435-0.296,1.947-0.809s0.805-1.222,0.805-1.944
		c0-0.726-0.292-1.435-0.805-1.948C15.759,54.638,15.051,54.346,14.325,54.346z"/>
	<path fill="#9C8AC1" d="M22.47,65.443c-0.726,0-1.435,0.292-1.948,0.805c-0.513,0.513-0.805,1.222-0.805,1.948
		c0,0.723,0.292,1.431,0.805,1.944c0.513,0.513,1.222,0.809,1.948,0.809c0.726,0,1.435-0.296,1.948-0.809
		c0.513-0.513,0.805-1.221,0.805-1.944c0-0.726-0.292-1.435-0.805-1.948C23.905,65.735,23.196,65.443,22.47,65.443z"/>
	<path fill="#9C8AC1" d="M14.325,65.443c-0.723,0-1.432,0.292-1.944,0.805c-0.512,0.513-0.809,1.222-0.809,1.948
		c0,0.723,0.296,1.431,0.809,1.944c0.513,0.513,1.222,0.809,1.944,0.809c0.726,0,1.435-0.296,1.947-0.809
		c0.512-0.513,0.805-1.221,0.805-1.944c0-0.726-0.292-1.435-0.805-1.948C15.759,65.735,15.051,65.443,14.325,65.443z"/>
	<path fill="#9C8AC1" d="M41.801,87.493c-0.722,0-1.431,0.292-1.944,0.806c-0.513,0.512-0.809,1.221-0.809,1.947
		c0,0.723,0.296,1.436,0.809,1.947c0.509,0.513,1.222,0.805,1.944,0.805c0.726,0,1.435-0.292,1.948-0.805
		c0.513-0.514,0.805-1.223,0.805-1.947c0-0.727-0.292-1.436-0.805-1.947C43.236,87.786,42.527,87.493,41.801,87.493z"/>
	<path fill="#9C8AC1" d="M52.836,87.493c-0.726,0-1.435,0.292-1.947,0.806c-0.513,0.512-0.805,1.221-0.805,1.947
		s0.292,1.436,0.805,1.947c0.513,0.512,1.225,0.805,1.947,0.805c0.726,0,1.435-0.292,1.948-0.805
		c0.513-0.514,0.805-1.223,0.805-1.947c0-0.727-0.292-1.436-0.805-1.947C54.271,87.786,53.562,87.493,52.836,87.493z"/>
	<path fill="#9C8AC1" d="M63.871,87.493c-0.726,0-1.435,0.292-1.947,0.806c-0.513,0.512-0.805,1.225-0.805,1.947
		c0,0.722,0.292,1.436,0.805,1.947c0.513,0.512,1.221,0.805,1.947,0.805c0.723,0,1.432-0.292,1.944-0.805
		c0.512-0.514,0.809-1.226,0.809-1.947c0-0.723-0.296-1.436-0.809-1.947C65.303,87.786,64.594,87.493,63.871,87.493z"/>
	<path fill="#9C8AC1" d="M74.903,87.493c-0.723,0-1.435,0.292-1.944,0.806c-0.513,0.512-0.809,1.221-0.809,1.947
		s0.296,1.436,0.809,1.947c0.509,0.513,1.221,0.805,1.944,0.805c0.726,0,1.435-0.292,1.949-0.805
		c0.512-0.514,0.806-1.223,0.806-1.947c0-0.727-0.294-1.436-0.806-1.947C76.338,87.786,75.629,87.493,74.903,87.493z"/>
	<path fill="#9C8AC1" d="M85.938,87.493c-0.723,0-1.434,0.292-1.946,0.806c-0.513,0.512-0.806,1.221-0.806,1.947
		s0.293,1.436,0.806,1.947c0.514,0.513,1.225,0.805,1.946,0.805c0.728,0,1.437-0.292,1.949-0.805
		c0.512-0.514,0.805-1.223,0.805-1.947c0-0.727-0.293-1.436-0.805-1.947C87.373,87.786,86.664,87.493,85.938,87.493z"/>
	<path fill="#9C8AC1" d="M96.973,87.493c-0.726,0-1.434,0.292-1.947,0.806c-0.512,0.512-0.805,1.221-0.805,1.947
		s0.293,1.436,0.805,1.947c0.515,0.513,1.223,0.805,1.947,0.805c0.723,0,1.432-0.292,1.945-0.805
		c0.512-0.514,0.809-1.223,0.809-1.947c0-0.727-0.297-1.436-0.809-1.947C98.404,87.786,97.695,87.493,96.973,87.493z"/>
</g>
<g id="Layer_1_1_">
	<g display="none">
		<path display="inline" fill="#9C8AC1" d="M148.838,70.359c-0.489-0.862-1.403-1.396-2.395-1.396l-11.915-0.006l0.003-5.577
			c0.002-1.521-1.231-2.754-2.751-2.755l-8.373-0.004l0.006-10.984c0.001-1.52-1.231-2.753-2.752-2.754l-10.896-0.005l0.006-11.109
			c0.001-1.521-1.231-2.754-2.753-2.754L79.607,33c-1.521-0.001-2.754,1.231-2.755,2.751l-0.005,11.108L65.95,46.854
			c-1.52-0.001-2.753,1.23-2.755,2.75L63.19,60.587l-8.373-0.004c-1.521,0-2.753,1.23-2.754,2.751l-0.005,10.869l-11.125-0.006
			l0.014-30.109c0.001-1.521-1.231-2.754-2.751-2.754L5.164,41.315c-1.521,0-2.754,1.231-2.755,2.752L2.393,74.176H1.945
			c-0.99,0-1.904,0.528-2.393,1.389c-0.49,0.859-0.481,1.916,0.022,2.767l16.717,28.219c2.072,3.453,6.671,6.062,10.698,6.063
			l91.034,0.049c4.024,0.005,8.626-2.598,10.704-6.053l20.076-33.476C149.312,72.28,149.326,71.222,148.838,70.359z M129.024,68.953
			l-19.27-0.011v-2.825l19.271,0.011L129.024,68.953z M104.252,66.114l-0.003,2.862c-4.613,0.362-7.904,3.464-9.434,5.25
			l-12.478-0.007l0.005-8.115L104.252,66.114L104.252,66.114z M117.901,60.617l-22.022-0.013l0.006-8.23l22.021,0.013
			L117.901,60.617z M82.358,38.507l21.906,0.011l-0.004,8.355l-21.908-0.013L82.358,38.507z M68.701,52.36l21.677,0.012
			l-0.003,8.229L68.697,60.59L68.701,52.36L68.701,52.36z M57.569,66.089l19.269,0.01l-0.007,8.116l-19.267-0.013L57.569,66.089z
			 M7.914,46.822l27.526,0.015l-0.003,5.305l-5.504-0.003c-1.521,0-2.754,1.231-2.756,2.752c0,1.521,1.232,2.753,2.752,2.755
			l5.505,0.002l-0.003,5.591l-5.504-0.002c-1.522,0-2.756,1.23-2.756,2.751c-0.001,1.52,1.233,2.752,2.753,2.753l5.505,0.003
			l-0.002,5.45L7.9,74.178L7.914,46.822z M124.006,103.774c-1.063,1.771-3.914,3.384-5.979,3.38l-91.033-0.048
			c-2.066,0-4.914-1.615-5.97-3.375L6.776,79.682L38.176,79.7l57.979,0.029c0.916,0.001,1.782-0.468,2.294-1.226
			c0.026-0.042,2.776-4.062,6.695-4.06l26.17,0.014c0.149,0.025,0.303,0.042,0.458,0.042c0.157,0.001,0.31-0.017,0.459-0.042
			l9.352,0.007L124.006,103.774z"/>
		<path display="inline" fill="#9C8AC1" d="M21.675,52.135c-0.725-0.001-1.434,0.291-1.949,0.803
			c-0.511,0.513-0.804,1.222-0.805,1.948c-0.001,0.722,0.291,1.432,0.803,1.944c0.513,0.513,1.223,0.809,1.948,0.81
			c0.726,0,1.434-0.296,1.948-0.808c0.511-0.513,0.807-1.222,0.806-1.944c0.001-0.725-0.292-1.435-0.804-1.948
			C23.111,52.428,22.401,52.136,21.675,52.135z"/>
		<path display="inline" fill="#9C8AC1" d="M13.53,52.13c-0.723-0.001-1.434,0.291-1.944,0.804c-0.513,0.513-0.809,1.222-0.81,1.948
			c-0.001,0.724,0.295,1.432,0.808,1.944c0.512,0.513,1.221,0.81,1.944,0.81c0.726,0,1.435-0.295,1.948-0.807
			c0.511-0.512,0.805-1.222,0.805-1.944c0.001-0.727-0.29-1.435-0.803-1.949C14.964,52.423,14.256,52.131,13.53,52.13z"/>
		<path display="inline" fill="#9C8AC1" d="M21.669,63.232c-0.726-0.001-1.435,0.292-1.948,0.804
			c-0.511,0.512-0.807,1.222-0.806,1.947c-0.002,0.724,0.292,1.432,0.802,1.944c0.513,0.513,1.222,0.81,1.949,0.81
			c0.725,0,1.435-0.296,1.948-0.808c0.512-0.513,0.806-1.222,0.807-1.944c0-0.725-0.292-1.434-0.804-1.947
			C23.104,63.524,22.396,63.231,21.669,63.232z"/>
		<path display="inline" fill="#9C8AC1" d="M13.524,63.227c-0.723,0-1.432,0.292-1.944,0.804c-0.513,0.513-0.809,1.222-0.81,1.948
			c0,0.723,0.295,1.431,0.808,1.944c0.512,0.513,1.22,0.81,1.944,0.81c0.726,0.001,1.434-0.294,1.946-0.807
			c0.514-0.513,0.808-1.221,0.808-1.943c-0.001-0.727-0.292-1.436-0.804-1.948C14.958,63.521,14.25,63.228,13.524,63.227z"/>
		<path display="inline" fill="#9C8AC1" d="M40.988,85.291c-0.722,0.001-1.433,0.292-1.945,0.806
			c-0.512,0.512-0.807,1.22-0.809,1.946c-0.001,0.725,0.294,1.436,0.808,1.946c0.508,0.516,1.221,0.808,1.943,0.808
			c0.727,0.002,1.437-0.289,1.947-0.803c0.513-0.513,0.807-1.222,0.807-1.947c0-0.728-0.291-1.437-0.804-1.947
			C42.423,85.587,41.715,85.292,40.988,85.291z"/>
		<path display="inline" fill="#9C8AC1" d="M52.024,85.298c-0.728-0.001-1.436,0.291-1.948,0.805
			c-0.513,0.511-0.806,1.222-0.807,1.946c0,0.728,0.292,1.436,0.803,1.947c0.514,0.514,1.225,0.807,1.948,0.807
			c0.727,0.001,1.435-0.29,1.949-0.804c0.512-0.513,0.805-1.22,0.805-1.947c0-0.727-0.292-1.436-0.804-1.947
			C53.458,85.594,52.75,85.298,52.024,85.298z"/>
		<path display="inline" fill="#9C8AC1" d="M63.058,85.304c-0.726,0-1.434,0.292-1.947,0.806c-0.512,0.51-0.806,1.224-0.806,1.946
			c0,0.723,0.292,1.436,0.803,1.947c0.513,0.513,1.22,0.808,1.947,0.807c0.726,0,1.432-0.292,1.946-0.804
			c0.511-0.512,0.808-1.225,0.809-1.947c0-0.723-0.295-1.436-0.808-1.948S63.781,85.306,63.058,85.304z"/>
		<path display="inline" fill="#9C8AC1" d="M74.09,85.31c-0.723-0.002-1.434,0.291-1.943,0.804
			c-0.514,0.514-0.809,1.223-0.812,1.948c0,0.726,0.297,1.435,0.809,1.947c0.508,0.512,1.22,0.806,1.942,0.807
			c0.729-0.002,1.438-0.291,1.948-0.804c0.515-0.513,0.807-1.222,0.808-1.948c-0.001-0.728-0.292-1.437-0.805-1.946
			C75.524,85.604,74.816,85.312,74.09,85.31z"/>
		<path display="inline" fill="#9C8AC1" d="M85.126,85.315c-0.724,0.001-1.434,0.291-1.947,0.805
			c-0.513,0.513-0.808,1.221-0.806,1.949c-0.001,0.725,0.291,1.434,0.802,1.947c0.514,0.512,1.226,0.804,1.948,0.803
			c0.726,0.003,1.436-0.289,1.948-0.804c0.511-0.51,0.808-1.219,0.808-1.946c0-0.726-0.294-1.434-0.805-1.944
			C86.561,85.609,85.852,85.317,85.126,85.315z"/>
		<path display="inline" fill="#9C8AC1" d="M96.159,85.322c-0.726,0-1.433,0.291-1.948,0.807c-0.509,0.509-0.804,1.219-0.804,1.945
			c-0.002,0.727,0.292,1.436,0.804,1.947c0.512,0.513,1.222,0.805,1.945,0.808c0.725,0,1.432-0.293,1.944-0.807
			c0.515-0.509,0.811-1.22,0.812-1.944c0-0.729-0.295-1.436-0.808-1.947C97.59,85.616,96.882,85.322,96.159,85.322z"/>
	</g>
	<g enable-background="new    ">
		<path fill="#FFFFFF" d="M42.617,85.638c1.378,0.01,2.399,0.317,3.063,0.923c0.663,0.605,0.992,1.394,0.985,2.361
			c-0.006,0.821-0.237,1.446-0.695,1.876c-0.458,0.43-1.112,0.642-1.962,0.636c-0.264-0.001-0.433-0.028-0.505-0.08
			c-0.074-0.053-0.109-0.158-0.108-0.32c0.001-0.146-0.008-0.337-0.029-0.572c-0.021-0.234-0.074-0.463-0.16-0.683
			c-0.086-0.221-0.225-0.409-0.415-0.563c-0.19-0.155-0.454-0.234-0.791-0.237c-0.47-0.003-0.888,0.138-1.256,0.421
			c-0.369,0.283-0.555,0.653-0.558,1.107c-0.002,0.396,0.146,0.72,0.445,0.971c0.298,0.252,0.675,0.485,1.128,0.701
			s0.947,0.435,1.48,0.658c0.534,0.225,1.027,0.518,1.479,0.879c0.452,0.364,0.827,0.812,1.124,1.351
			c0.296,0.537,0.443,1.216,0.437,2.037c-0.004,0.646-0.115,1.251-0.332,1.813c-0.216,0.563-0.535,1.053-0.956,1.468
			s-0.951,0.738-1.591,0.969c-0.64,0.229-1.385,0.342-2.235,0.336c-0.733-0.005-1.411-0.09-2.033-0.256
			c-0.623-0.165-1.164-0.37-1.624-0.615s-0.822-0.512-1.083-0.8c-0.262-0.288-0.392-0.548-0.391-0.783
			c0.006-0.968,0.066-1.664,0.179-2.089c0.113-0.425,0.315-0.636,0.609-0.634c0.205,0.001,0.42,0.091,0.647,0.268
			c0.226,0.178,0.485,0.378,0.777,0.6c0.292,0.223,0.631,0.422,1.019,0.602c0.387,0.179,0.838,0.27,1.351,0.272
			c0.206,0.002,0.407-0.016,0.605-0.051s0.375-0.097,0.529-0.184c0.154-0.087,0.28-0.203,0.376-0.349
			c0.096-0.146,0.146-0.322,0.146-0.527c0.003-0.366-0.135-0.661-0.412-0.883c-0.277-0.222-0.628-0.427-1.052-0.613
			c-0.424-0.185-0.881-0.38-1.371-0.58c-0.49-0.201-0.947-0.477-1.37-0.824c-0.423-0.348-0.772-0.793-1.047-1.338
			c-0.275-0.544-0.41-1.242-0.404-2.093c0.006-0.953,0.191-1.759,0.555-2.416c0.364-0.658,0.83-1.193,1.397-1.607
			c0.567-0.415,1.207-0.711,1.92-0.89C41.205,85.721,41.913,85.634,42.617,85.638z"/>
		<path fill="#FFFFFF" d="M59.212,104.186c0,0.117-0.068,0.268-0.201,0.45c-0.133,0.183-0.321,0.364-0.564,0.546
			c-0.244,0.182-0.53,0.338-0.861,0.468s-0.694,0.192-1.09,0.19c-0.484-0.004-0.901-0.113-1.252-0.327
			c-0.35-0.216-0.66-0.508-0.929-0.876c-0.27-0.368-0.504-0.806-0.707-1.313s-0.396-1.048-0.583-1.62
			c-0.938-0.109-1.721-0.364-2.349-0.764c-0.628-0.4-1.127-0.91-1.497-1.528c-0.37-0.618-0.633-1.32-0.789-2.106
			c-0.156-0.785-0.231-1.626-0.225-2.521c0.007-1.144,0.144-2.261,0.408-3.352c0.264-1.091,0.696-2.063,1.296-2.917
			c0.6-0.854,1.385-1.539,2.356-2.053c0.972-0.514,2.169-0.767,3.592-0.757c1.041,0.007,1.927,0.163,2.659,0.469
			s1.326,0.743,1.784,1.311c0.458,0.568,0.791,1.267,0.998,2.097c0.207,0.83,0.307,1.773,0.3,2.829
			c-0.005,0.763-0.077,1.603-0.215,2.519c-0.139,0.916-0.394,1.801-0.766,2.656c-0.373,0.855-0.88,1.629-1.522,2.322
			c-0.643,0.692-1.479,1.204-2.508,1.534c0.218,0.221,0.481,0.472,0.787,0.752c0.306,0.28,0.597,0.55,0.875,0.809
			c0.276,0.259,0.514,0.495,0.71,0.709C59.115,103.925,59.213,104.083,59.212,104.186z M55.332,89.112
			c-0.66-0.005-1.189,0.189-1.588,0.583c-0.399,0.394-0.707,0.876-0.922,1.445c-0.217,0.571-0.364,1.168-0.441,1.79
			c-0.078,0.624-0.118,1.163-0.121,1.617c-0.008,1.276,0.179,2.227,0.564,2.853c0.384,0.626,0.929,0.941,1.632,0.946
			c0.616,0.004,1.12-0.208,1.512-0.639c0.391-0.43,0.699-0.949,0.923-1.556c0.224-0.607,0.375-1.245,0.453-1.911
			c0.078-0.667,0.118-1.242,0.122-1.727c0.007-1.056-0.149-1.885-0.467-2.489C56.679,89.422,56.124,89.117,55.332,89.112z"/>
		<path fill="#FFFFFF" d="M75.557,94.529c-0.047,0.439-0.116,0.927-0.208,1.462c-0.092,0.534-0.23,1.076-0.418,1.625
			s-0.437,1.079-0.747,1.59c-0.312,0.512-0.711,0.967-1.198,1.367c-0.486,0.4-1.071,0.719-1.755,0.956
			c-0.683,0.237-1.495,0.353-2.433,0.347c-0.954-0.007-1.767-0.148-2.439-0.423c-0.672-0.276-1.22-0.654-1.642-1.134
			c-0.422-0.479-0.727-1.035-0.913-1.667c-0.187-0.632-0.277-1.308-0.272-2.026c0.002-0.322,0.02-0.759,0.053-1.309
			c0.033-0.55,0.078-1.146,0.133-1.792c0.055-0.646,0.115-1.315,0.178-2.013c0.063-0.695,0.123-1.358,0.179-1.989
			c0.056-0.63,0.107-1.198,0.155-1.704c0.047-0.505,0.079-0.891,0.096-1.154c0.016-0.278,0.054-0.458,0.113-0.538
			s0.147-0.12,0.265-0.12l1.21,0.009c0.895,0.006,1.495,0.2,1.8,0.584c0.305,0.384,0.456,0.95,0.45,1.698
			c0,0.044-0.013,0.237-0.037,0.581c-0.024,0.346-0.056,0.767-0.096,1.266c-0.04,0.498-0.081,1.04-0.121,1.627
			c-0.041,0.587-0.082,1.143-0.122,1.671s-0.073,0.99-0.097,1.386c-0.025,0.396-0.037,0.659-0.038,0.791
			c-0.002,0.25,0.007,0.536,0.027,0.859c0.02,0.322,0.076,0.631,0.17,0.925c0.093,0.294,0.246,0.541,0.457,0.74
			c0.211,0.199,0.515,0.301,0.911,0.303c0.498,0.004,0.906-0.162,1.224-0.497c0.318-0.336,0.562-0.736,0.734-1.205
			c0.171-0.469,0.292-0.944,0.361-1.429c0.069-0.482,0.12-0.879,0.151-1.187c0.063-0.747,0.131-1.518,0.203-2.309
			c0.071-0.792,0.135-1.532,0.191-2.221c0.056-0.689,0.101-1.29,0.133-1.803c0.033-0.514,0.05-0.865,0.051-1.057
			c0.002-0.293,0.025-0.479,0.07-0.561c0.045-0.079,0.141-0.12,0.287-0.119l1.209,0.009c0.498,0.003,0.891,0.05,1.176,0.14
			s0.501,0.209,0.646,0.356s0.236,0.317,0.271,0.508c0.035,0.191,0.053,0.39,0.052,0.595c-0.002,0.19-0.016,0.55-0.041,1.077
			c-0.025,0.528-0.056,1.13-0.089,1.804c-0.034,0.675-0.075,1.371-0.124,2.089C75.675,93.356,75.618,93.986,75.557,94.529z"/>
		<path fill="#FFFFFF" d="M80.15,101.732c-0.822-0.005-1.407-0.171-1.757-0.496c-0.35-0.324-0.522-0.788-0.519-1.39
			c0.002-0.293,0.027-0.794,0.076-1.506c0.049-0.711,0.112-1.521,0.192-2.43c0.079-0.908,0.159-1.869,0.239-2.881
			s0.16-1.964,0.239-2.858c0.08-0.894,0.144-1.679,0.192-2.354c0.048-0.673,0.073-1.135,0.075-1.385
			c0.001-0.22,0.119-0.329,0.354-0.328l1.21,0.009c0.895,0.006,1.494,0.2,1.8,0.584s0.456,0.949,0.45,1.697
			c0,0.073-0.013,0.308-0.037,0.703c-0.025,0.396-0.062,0.896-0.109,1.495c-0.048,0.602-0.101,1.272-0.156,2.013
			c-0.057,0.74-0.113,1.499-0.17,2.275c-0.057,0.777-0.113,1.537-0.169,2.276c-0.057,0.74-0.109,1.412-0.157,2.012
			c-0.048,0.602-0.088,1.104-0.12,1.507s-0.056,0.648-0.07,0.736c-0.017,0.117-0.046,0.202-0.091,0.252
			c-0.044,0.052-0.132,0.077-0.264,0.076L80.15,101.732z"/>
		<path fill="#FFFFFF" d="M94.626,101.83c-0.602-0.004-1.048-0.095-1.34-0.272c-0.293-0.179-0.503-0.399-0.634-0.664
			c-0.752-1.575-1.457-3.082-2.114-4.524s-1.326-2.898-2.006-4.37c0.004,1.584,0.016,3.161,0.034,4.73s0.037,3.146,0.057,4.73
			c-0.002,0.22-0.12,0.329-0.354,0.327l-1.21-0.008c-0.836-0.006-1.426-0.175-1.768-0.507c-0.343-0.333-0.512-0.821-0.507-1.467
			c0.001-0.176,0.014-0.473,0.038-0.891c0.025-0.417,0.062-0.912,0.109-1.484s0.1-1.198,0.155-1.88
			c0.057-0.683,0.116-1.374,0.18-2.078c0.096-1.113,0.175-2.037,0.239-2.771c0.062-0.732,0.114-1.352,0.154-1.857
			s0.069-0.938,0.086-1.298c0.018-0.359,0.034-0.715,0.052-1.066c0.001-0.22,0.119-0.33,0.354-0.328l1.76,0.012
			c0.484,0.004,0.88,0.061,1.187,0.173c0.308,0.113,0.56,0.265,0.756,0.457c0.197,0.191,0.354,0.409,0.469,0.651
			c0.116,0.243,0.224,0.497,0.325,0.762c0.346,0.912,0.651,1.698,0.919,2.36c0.267,0.662,0.501,1.243,0.703,1.743
			s0.379,0.934,0.53,1.301c0.151,0.369,0.292,0.707,0.422,1.015c0.131,0.31,0.261,0.607,0.391,0.895s0.267,0.6,0.411,0.938
			c0.006-0.865,0.009-1.756,0.008-2.673c-0.002-0.916-0.003-1.812-0.004-2.684c-0.002-0.873-0.004-1.713-0.005-2.52
			c-0.003-0.807-0.001-1.532,0.003-2.178c0.001-0.132,0.126-0.198,0.376-0.196l1.21,0.009c0.483,0.003,0.868,0.054,1.154,0.151
			c0.284,0.097,0.508,0.237,0.668,0.422c0.159,0.185,0.265,0.408,0.314,0.673c0.049,0.265,0.073,0.565,0.07,0.902
			c-0.002,0.367-0.028,0.928-0.077,1.684c-0.049,0.754-0.106,1.602-0.171,2.539c-0.065,0.938-0.138,1.91-0.218,2.914
			c-0.081,1.005-0.156,1.932-0.228,2.781c-0.072,0.851-0.136,1.572-0.191,2.165c-0.055,0.595-0.091,0.943-0.105,1.046
			c-0.001,0.117-0.043,0.204-0.123,0.263c-0.081,0.058-0.174,0.087-0.275,0.086L94.626,101.83z"/>
		<path fill="#FFFFFF" d="M107.118,89.374l-0.918,12.205c-0.017,0.22-0.099,0.329-0.245,0.328l-1.21-0.008
			c-0.821-0.006-1.406-0.171-1.756-0.497c-0.35-0.324-0.523-0.787-0.52-1.389c0.002-0.22,0.016-0.55,0.04-0.99
			c0.025-0.439,0.062-0.957,0.109-1.55c0.049-0.594,0.101-1.239,0.156-1.935c0.056-0.696,0.116-1.4,0.18-2.111
			c0.062-0.711,0.123-1.418,0.179-2.122c0.057-0.704,0.108-1.355,0.156-1.957l-3.52-0.023c-0.162-0.002-0.241-0.104-0.24-0.31
			l0.074-1.232c0.016-0.19,0.051-0.376,0.104-0.56c0.052-0.184,0.138-0.348,0.256-0.493s0.27-0.263,0.453-0.35
			c0.185-0.087,0.408-0.129,0.673-0.127l9.834,0.066c0.088,0,0.167,0.023,0.241,0.067c0.073,0.045,0.108,0.125,0.108,0.243
			l-0.097,1.297c-0.033,0.439-0.156,0.795-0.37,1.064c-0.215,0.27-0.652,0.402-1.312,0.398L107.118,89.374z"/>
	</g>
</g>
<g id="Layer_2">
</g>
</svg>
