<?xml version="1.0" encoding="utf-8"?>
<!-- Generator: Adobe Illustrator 16.0.0, SVG Export Plug-In . SVG Version: 6.00 Build 0)  -->
<!DOCTYPE svg PUBLIC "-//W3C//DTD SVG 1.1//EN" "http://www.w3.org/Graphics/SVG/1.1/DTD/svg11.dtd">
<svg version="1.1" id="Layer_1" xmlns="http://www.w3.org/2000/svg" xmlns:xlink="http://www.w3.org/1999/xlink" x="0px" y="0px"
	 width="1920px" height="150px" viewBox="0 0 1920 150" enable-background="new 0 0 1920 150" xml:space="preserve">
<path fill="none" stroke="#FFC6DF" stroke-width="21" stroke-miterlimit="10" d="M9254.5,74.998c-186.357,0-186.357-14-372.718-14
	c-186.347,0-186.347,14-372.69,14c-186.351,0-186.351-14-372.709-14c-186.346,0-186.346,14-372.699,14
	c-186.352,0-186.352-14-372.695-14c-186.359,0-186.359,14-372.725,14c-186.342,0-186.342-14-372.692-13.999
	c-186.353,0-186.353,14-372.707,14c-186.36,0-186.36-14-372.728-14c-186.354,0-186.354,14-372.705,14
	c-186.354,0-186.354-14-372.7-14c-186.354,0-186.354,14-372.72,14c-186.339,0-186.339-14-372.709-14
	c-186.375,0-186.356,14-372.722,14c-186.364,0-186.364-14-372.743-14c-186.355,0-186.355,14-372.729,14
	c-186.348,0-186.348-14-372.719-14s-186.365,14-372.711,14c-186.354,0-186.354-14-372.719-14c-186.355,0-186.355,14-372.721,14
	c-186.354,0-186.354-14-372.735-14c-186.362,0-186.362,14-372.719,14c-186.364,0-186.364-14-372.746-14
	c-186.354,0-186.347,14-372.719,14c-186.331,0-186.331-14-372.687-14c-186.34,0-186.34,14-372.679,14
	c-186.348,0-186.348-14-372.7-14c-186.349,0-186.349,14-372.722,14c-186.364,0-186.354-14-372.743-14
	c-186.354,0-186.354,14-372.711,14c-186.364,0-186.364-14-372.734-14c-186.366,0-186.357,14-372.729,14
	c-186.35,0-186.35-14-372.721-14c-186.381,0-186.363,14-372.734,14c-186.381,0-186.373-14-372.771-14
	c-186.371,0-186.371,14-372.751,14c-186.39,0-186.374-14-372.763-14C-4722.461,61-4722.461,75-4908.818,75
	c-186.381,0-186.381-14-372.76-14c-186.389,0-186.363,14-372.76,14c-186.383,0-186.383-14-372.787-14
	c-186.371,0-186.371,14-372.768,14c-186.4,0-186.4-14-372.805-14c-186.393,0-186.393,14-372.803,14"/>
<path fill="#FFC6DF" d="M1958,65.499H-40v-95h1998V65.499z"/>
</svg>
