<?xml version="1.0" encoding="utf-8"?>
<!-- Generator: Adobe Illustrator 16.0.0, SVG Export Plug-In . SVG Version: 6.00 Build 0)  -->
<!DOCTYPE svg PUBLIC "-//W3C//DTD SVG 1.1//EN" "http://www.w3.org/Graphics/SVG/1.1/DTD/svg11.dtd">
<svg version="1.1" id="Layer_1" xmlns="http://www.w3.org/2000/svg" xmlns:xlink="http://www.w3.org/1999/xlink" x="0px" y="0px"
	 width="1920px" height="150px" viewBox="0 0 1920 150" enable-background="new 0 0 1920 150" xml:space="preserve">
<g>
	<path fill="none" stroke="#FFC6DF" stroke-width="21" stroke-miterlimit="10" d="M-7319.5,82.5c186.357,0,186.357,14,372.718,14
		c186.346,0,186.346-14,372.69-14c186.351,0,186.351,14,372.71,14c186.345,0,186.345-14,372.699-14c186.351,0,186.351,14,372.695,14
		c186.359,0,186.359-14,372.724-14c186.342,0,186.342,14,372.693,14c186.352,0,186.352-14,372.707-14c186.36,0,186.36,14,372.728,14
		c186.354,0,186.354-14,372.704-14c186.354,0,186.354,14,372.701,14c186.354,0,186.354-14,372.719-14
		c186.339,0,186.339,14,372.71,14c186.374,0,186.356-14,372.721-14s186.364,14,372.744,14c186.355,0,186.355-14,372.728-14
		c186.348,0,186.348,14,372.719,14s186.365-14,372.711-14c186.354,0,186.354,14,372.718,14c186.356,0,186.356-14,372.721-14
		c186.354,0,186.354,14,372.735,14c186.363,0,186.363-14,372.719-14c186.364,0,186.364,14,372.746,14
		c186.355,0,186.347-14,372.719-14c186.331,0,186.331,14,372.686,14c186.34,0,186.34-14,372.679-14c186.348,0,186.348,14,372.701,14
		c186.348,0,186.348-14,372.721-14c186.364,0,186.355,14,372.744,14c186.354,0,186.354-14,372.71-14
		c186.365,0,186.365,14,372.735,14c186.366,0,186.357-14,372.729-14c186.349,0,186.349,14,372.72,14
		c186.381,0,186.364-14,372.735-14c186.381,0,186.372,14,372.771,14c186.371,0,186.371-14,372.751-14
		c186.39,0,186.374,14,372.762,14c186.339,0,186.339-14,372.696-14c186.381,0,186.381,14,372.76,14c186.389,0,186.363-14,372.76-14
		c186.383,0,186.383,14,372.787,14c186.371,0,186.371-14,372.768-14c186.4,0,186.4,14,372.805,14c186.393,0,186.393-14,372.803-14"
		/>
</g>
<rect x="-23" y="92" fill="#FFC6DF" width="1998" height="95"/>
</svg>
