<?xml version="1.0" encoding="utf-8"?>
<!-- Generator: Adobe Illustrator 16.0.0, SVG Export Plug-In . SVG Version: 6.00 Build 0)  -->
<!DOCTYPE svg PUBLIC "-//W3C//DTD SVG 1.1//EN" "http://www.w3.org/Graphics/SVG/1.1/DTD/svg11.dtd">
<svg version="1.1" id="Layer_1" xmlns="http://www.w3.org/2000/svg" xmlns:xlink="http://www.w3.org/1999/xlink" x="0px" y="0px"
	 width="85px" height="60px" viewBox="0 0 85 60" enable-background="new 0 0 85 60" xml:space="preserve">
<path fill="#FFC6DF" d="M4.378,6.75c-0.596,0-1.084,0.376-1.084,0.954v43.241c0,0.58,0.489,1.053,1.087,1.053h1.005
	c0.006-0.046,0.123-0.264,0.134-0.307c1.268-5.381,6.329-9.282,12.034-9.282c5.573,0,10.475,3.633,11.924,8.836
	c0.15,0.71,0.681,0.753,0.785,0.753h21.133c0.596,0,1.082-0.471,1.082-1.05V7.799c0-0.579-0.484-1.049-1.082-1.049H4.378z"/>
<g>
	<path fill="#FFC6DF" d="M5.672,53.602c-0.033,0-0.112-0.002-0.146-0.004L4.682,53.6c-2.239,0-4.057-1.697-4.057-3.779V8.907
		c0-2.085,1.818-3.782,4.057-3.782h46.145c2.231,0,4.051,1.784,4.051,3.87v40.821c0,2.086-1.819,3.781-4.054,3.781H30.059
		c-1.072-0.017-3.182-0.632-3.662-2.863c-1.048-3.619-4.671-6.211-8.789-6.211c-4.215,0-7.956,2.783-8.892,6.615
		C8.496,52.8,7.024,53.602,5.672,53.602z M4.679,8.003c-0.585,0-1.064,0.356-1.064,0.903v40.912c0,0.545,0.479,0.994,1.067,0.994
		h0.986c0.005-0.043,0.121-0.25,0.131-0.291c1.245-5.09,6.211-8.781,11.81-8.781c5.469,0,10.281,3.438,11.702,8.359
		c0.148,0.674,0.668,0.713,0.771,0.713h20.74c0.585,0,1.062-0.447,1.062-0.992V8.997c0-0.547-0.475-0.993-1.062-0.993L4.679,8.003
		L4.679,8.003z"/>
</g>
<polygon fill="#9C8AC1" points="61,13.5 61,35 83.625,35 73.625,13.5 "/>
<path fill="#FFC6DF" d="M84.93,34.366c0,0-0.094-2.277-0.289-3.392c-0.164-0.95-1.086-2.875-1.086-2.875l-7.3-14.78
	c-0.95-1.653-3.114-2.944-4.558-2.944H60.785c-1.438,0-2.605,1.271-2.605,2.837v36.462c0,1.565,1.168,2.84,2.605,2.84h0.643
	c0,0,0.949-0.136,1.305-1.429c0.985-4.278,4.515-7.464,8.748-7.464c4.146,0,7.612,3.055,8.684,7.193
	c0.441,1.752,2.23,1.697,2.23,1.697c1.439,0,2.605-1.272,2.605-2.839L84.93,34.366z M78.326,30.547H65.312
	c-1.098,0-1.989-0.976-1.989-2.163V17.308c0-1.194,0.894-2.165,1.989-2.165h4.363c2.483,0,4.117,2.186,4.631,3.239l5.064,10.26
	C79.893,29.689,79.425,30.547,78.326,30.547z"/>
<rect x="4.75" y="19.25" fill="none" width="44.624" height="14.5"/>
<g enable-background="new    ">
	<path fill="#9C8AC1" d="M8.988,19.51c0.815,0,1.419,0.178,1.813,0.533c0.395,0.355,0.592,0.819,0.592,1.392
		c0,0.485-0.135,0.855-0.403,1.111c-0.269,0.256-0.655,0.383-1.157,0.383c-0.156,0-0.256-0.015-0.299-0.045
		c-0.043-0.03-0.065-0.093-0.065-0.188c0-0.087-0.007-0.199-0.02-0.338c-0.013-0.139-0.046-0.273-0.098-0.403
		c-0.052-0.13-0.134-0.24-0.247-0.331c-0.113-0.092-0.269-0.137-0.468-0.137c-0.278,0-0.525,0.084-0.741,0.253
		c-0.217,0.169-0.325,0.389-0.325,0.657c0,0.233,0.089,0.425,0.267,0.571c0.178,0.147,0.401,0.284,0.669,0.41
		c0.269,0.125,0.561,0.253,0.877,0.383c0.316,0.131,0.609,0.302,0.878,0.514c0.269,0.213,0.492,0.477,0.669,0.793
		c0.177,0.316,0.267,0.718,0.267,1.203c0,0.381-0.063,0.738-0.189,1.072c-0.125,0.334-0.312,0.624-0.559,0.871
		c-0.247,0.247-0.559,0.439-0.936,0.578S8.698,29,8.195,29c-0.433,0-0.834-0.048-1.202-0.143C6.624,28.762,6.304,28.643,6.03,28.5
		c-0.273-0.144-0.487-0.3-0.643-0.469c-0.156-0.169-0.234-0.322-0.234-0.461c0-0.572,0.033-0.983,0.098-1.235
		c0.065-0.251,0.184-0.377,0.357-0.377c0.122,0,0.249,0.052,0.384,0.156c0.134,0.104,0.288,0.221,0.461,0.351
		c0.173,0.13,0.375,0.247,0.604,0.352c0.229,0.104,0.496,0.155,0.799,0.155c0.121,0,0.241-0.011,0.357-0.032
		c0.117-0.021,0.221-0.059,0.312-0.11c0.091-0.052,0.165-0.121,0.221-0.208c0.056-0.087,0.084-0.19,0.084-0.312
		c0-0.217-0.083-0.391-0.247-0.521s-0.373-0.249-0.624-0.357s-0.522-0.221-0.812-0.338s-0.561-0.277-0.812-0.481
		c-0.251-0.203-0.459-0.466-0.624-0.786s-0.247-0.732-0.247-1.235c0-0.562,0.106-1.04,0.319-1.43
		c0.212-0.39,0.485-0.709,0.819-0.955c0.333-0.247,0.71-0.425,1.131-0.533S8.572,19.51,8.988,19.51z"/>
	<path fill="#9C8AC1" d="M18.868,30.404c0,0.069-0.039,0.158-0.117,0.267c-0.078,0.108-0.188,0.216-0.331,0.325
		c-0.143,0.107-0.312,0.201-0.507,0.279c-0.195,0.078-0.409,0.117-0.644,0.117c-0.286,0-0.533-0.063-0.741-0.188
		c-0.208-0.126-0.393-0.298-0.553-0.514c-0.16-0.217-0.301-0.475-0.422-0.773c-0.122-0.3-0.238-0.618-0.351-0.956
		c-0.555-0.061-1.019-0.208-1.391-0.441c-0.373-0.234-0.669-0.533-0.89-0.897c-0.221-0.364-0.379-0.777-0.475-1.241
		c-0.096-0.464-0.143-0.96-0.143-1.488c0-0.677,0.076-1.337,0.228-1.983c0.151-0.646,0.403-1.222,0.754-1.729
		s0.812-0.914,1.385-1.222c0.572-0.308,1.278-0.462,2.119-0.462c0.615,0,1.14,0.089,1.573,0.267c0.433,0.178,0.786,0.434,1.06,0.767
		c0.273,0.334,0.472,0.746,0.598,1.235s0.188,1.047,0.188,1.671c0,0.45-0.039,0.946-0.117,1.488
		c-0.078,0.542-0.226,1.065-0.442,1.573c-0.217,0.507-0.514,0.966-0.891,1.378c-0.377,0.411-0.869,0.717-1.476,0.916
		c0.13,0.13,0.286,0.277,0.468,0.442c0.182,0.164,0.355,0.322,0.52,0.475c0.165,0.151,0.306,0.29,0.423,0.416
		C18.809,30.25,18.868,30.344,18.868,30.404z M16.515,21.512c-0.39,0-0.702,0.117-0.936,0.352c-0.234,0.233-0.414,0.52-0.54,0.857
		c-0.125,0.339-0.21,0.691-0.253,1.06c-0.043,0.369-0.065,0.688-0.065,0.956c0,0.754,0.115,1.315,0.345,1.684
		c0.229,0.368,0.552,0.552,0.968,0.552c0.364,0,0.661-0.127,0.891-0.383c0.229-0.256,0.409-0.563,0.54-0.923
		c0.13-0.36,0.216-0.737,0.26-1.132c0.043-0.394,0.065-0.734,0.065-1.021c0-0.624-0.095-1.113-0.286-1.469
		C17.312,21.689,16.983,21.512,16.515,21.512z"/>
	<path fill="#9C8AC1" d="M28.488,24.632c-0.026,0.261-0.065,0.549-0.117,0.865c-0.052,0.316-0.132,0.637-0.241,0.962
		c-0.108,0.324-0.253,0.639-0.436,0.942c-0.182,0.303-0.416,0.574-0.702,0.812c-0.286,0.238-0.631,0.429-1.034,0.571
		C25.557,28.929,25.078,29,24.523,29c-0.563,0-1.044-0.08-1.443-0.24c-0.399-0.16-0.724-0.382-0.975-0.663
		c-0.251-0.281-0.434-0.608-0.546-0.981c-0.113-0.373-0.169-0.771-0.169-1.196c0-0.19,0.008-0.448,0.026-0.773
		c0.017-0.325,0.041-0.678,0.071-1.06c0.03-0.381,0.063-0.777,0.098-1.189c0.035-0.411,0.067-0.804,0.098-1.177
		c0.03-0.372,0.058-0.708,0.084-1.007c0.026-0.299,0.043-0.526,0.052-0.683c0.009-0.165,0.03-0.271,0.065-0.318
		s0.086-0.072,0.156-0.072h0.715c0.529,0,0.884,0.113,1.066,0.339c0.182,0.225,0.273,0.559,0.273,1.001
		c0,0.025-0.006,0.141-0.02,0.344c-0.013,0.204-0.03,0.453-0.052,0.748c-0.022,0.295-0.043,0.615-0.065,0.962
		c-0.022,0.347-0.043,0.676-0.065,0.988c-0.022,0.312-0.039,0.585-0.052,0.818c-0.013,0.234-0.02,0.391-0.02,0.469
		c0,0.147,0.007,0.316,0.02,0.507c0.013,0.19,0.048,0.372,0.104,0.546c0.056,0.173,0.147,0.318,0.273,0.436s0.306,0.175,0.54,0.175
		c0.294,0,0.535-0.099,0.722-0.299c0.186-0.199,0.329-0.438,0.429-0.715s0.169-0.559,0.208-0.845
		c0.039-0.286,0.067-0.521,0.084-0.702c0.035-0.442,0.072-0.897,0.111-1.365s0.073-0.905,0.104-1.312
		c0.03-0.407,0.054-0.763,0.071-1.066c0.018-0.303,0.026-0.511,0.026-0.624c0-0.173,0.013-0.283,0.039-0.331
		c0.026-0.048,0.083-0.072,0.169-0.072h0.715c0.294,0,0.526,0.026,0.695,0.078c0.169,0.053,0.297,0.122,0.384,0.208
		c0.086,0.087,0.141,0.187,0.162,0.3c0.021,0.112,0.033,0.229,0.033,0.351c0,0.112-0.006,0.325-0.02,0.637
		c-0.013,0.312-0.028,0.668-0.045,1.066c-0.018,0.398-0.039,0.811-0.065,1.234C28.553,23.938,28.522,24.312,28.488,24.632z"/>
	<path fill="#9C8AC1" d="M31.231,28.87c-0.486,0-0.832-0.096-1.04-0.286s-0.312-0.464-0.312-0.819c0-0.173,0.013-0.47,0.039-0.89
		c0.026-0.421,0.061-0.899,0.104-1.437c0.043-0.538,0.086-1.105,0.13-1.703c0.043-0.599,0.086-1.161,0.13-1.69
		c0.043-0.528,0.078-0.992,0.104-1.391s0.039-0.672,0.039-0.819c0-0.13,0.069-0.195,0.208-0.195h0.715
		c0.529,0,0.884,0.113,1.066,0.339c0.182,0.225,0.273,0.559,0.273,1.001c0,0.043-0.007,0.182-0.02,0.416
		c-0.013,0.233-0.033,0.528-0.059,0.884s-0.054,0.752-0.084,1.189c-0.031,0.438-0.061,0.886-0.091,1.346
		c-0.03,0.459-0.061,0.907-0.091,1.345c-0.03,0.438-0.059,0.835-0.084,1.189c-0.026,0.355-0.048,0.652-0.065,0.891
		c-0.018,0.239-0.031,0.384-0.039,0.436c-0.009,0.069-0.026,0.119-0.052,0.149c-0.026,0.031-0.078,0.046-0.156,0.046H31.231z"/>
	<path fill="#9C8AC1" d="M39.784,28.87c-0.355,0-0.62-0.052-0.793-0.156c-0.173-0.104-0.299-0.233-0.377-0.39
		c-0.451-0.928-0.873-1.815-1.268-2.665c-0.394-0.85-0.795-1.707-1.202-2.574c0.008,0.937,0.021,1.868,0.039,2.795
		c0.017,0.928,0.034,1.859,0.052,2.795c0,0.13-0.069,0.195-0.208,0.195h-0.715c-0.494,0-0.843-0.098-1.047-0.293
		c-0.204-0.194-0.305-0.482-0.305-0.864c0-0.104,0.006-0.279,0.02-0.526c0.013-0.247,0.032-0.539,0.059-0.877
		c0.026-0.339,0.054-0.709,0.084-1.112c0.03-0.402,0.062-0.812,0.097-1.229c0.052-0.658,0.095-1.204,0.13-1.638
		c0.034-0.434,0.062-0.8,0.084-1.099c0.021-0.299,0.037-0.555,0.045-0.767c0.008-0.213,0.017-0.423,0.026-0.631
		c0-0.13,0.069-0.195,0.208-0.195h1.04c0.286,0,0.52,0.033,0.702,0.098c0.182,0.065,0.332,0.154,0.448,0.267
		c0.117,0.113,0.21,0.24,0.28,0.384c0.069,0.143,0.134,0.292,0.195,0.448c0.208,0.538,0.392,1.001,0.552,1.392
		c0.161,0.39,0.301,0.732,0.423,1.026c0.121,0.295,0.228,0.551,0.318,0.768s0.175,0.416,0.253,0.598s0.156,0.357,0.234,0.526
		c0.078,0.169,0.161,0.354,0.247,0.553c0-0.512-0.002-1.038-0.006-1.58c-0.004-0.541-0.009-1.069-0.013-1.586
		c-0.004-0.516-0.009-1.012-0.013-1.488c-0.004-0.477-0.007-0.905-0.007-1.287c0-0.078,0.074-0.117,0.221-0.117h0.715
		c0.286,0,0.514,0.028,0.683,0.085s0.301,0.139,0.396,0.247s0.158,0.24,0.188,0.396s0.045,0.334,0.045,0.533
		c0,0.217-0.013,0.548-0.039,0.994c-0.026,0.446-0.056,0.947-0.091,1.502s-0.074,1.129-0.117,1.722
		c-0.044,0.594-0.085,1.143-0.124,1.645c-0.039,0.503-0.074,0.93-0.104,1.281c-0.031,0.351-0.05,0.557-0.059,0.617
		c0,0.069-0.024,0.121-0.072,0.156c-0.047,0.034-0.102,0.052-0.162,0.052H39.784z"/>
	<path fill="#9C8AC1" d="M47.116,21.46l-0.494,7.215c-0.009,0.13-0.056,0.195-0.144,0.195h-0.715c-0.484,0-0.832-0.096-1.039-0.286
		c-0.209-0.19-0.312-0.464-0.312-0.819c0-0.13,0.007-0.324,0.02-0.585c0.014-0.26,0.033-0.565,0.059-0.916s0.055-0.732,0.084-1.145
		c0.031-0.411,0.063-0.827,0.098-1.247c0.035-0.421,0.067-0.839,0.098-1.255s0.059-0.802,0.084-1.157h-2.079
		c-0.096,0-0.143-0.061-0.143-0.182l0.039-0.729c0.008-0.112,0.028-0.223,0.058-0.331s0.08-0.206,0.15-0.293
		c0.069-0.086,0.158-0.155,0.266-0.208c0.108-0.052,0.24-0.078,0.396-0.078h5.811c0.053,0,0.1,0.014,0.144,0.039
		c0.044,0.026,0.065,0.074,0.065,0.144l-0.053,0.767c-0.018,0.26-0.088,0.471-0.214,0.631s-0.384,0.24-0.774,0.24H47.116z"/>
</g>
<line fill="none" stroke="#9C8AC1" stroke-width="3" stroke-miterlimit="10" x1="62.5" y1="10.375" x2="62.5" y2="5.125"/>
<circle fill="#8E9F9F" cx="59.938" cy="3.799" r="0.771"/>
<circle fill="#8E9F9F" cx="55.648" cy="1.271" r="0.771"/>
<circle fill="#8E9F9F" cx="56.752" cy="3.799" r="1.104"/>
<circle fill="#8E9F9F" cx="51.791" cy="2.382" r="1.417"/>
<g>
	<path fill="none" stroke="#9C8AC1" stroke-width="3" stroke-miterlimit="10" d="M5.041,32.75c4.432,0,4.432,2,8.863,2
		c4.433,0,4.433-2,8.867-2c4.432,0,4.432,2,8.864,2c4.435,0,4.435-2,8.87-2c4.435,0,4.435,2,8.87,2"/>
</g>
</svg>
