<?xml version="1.0" encoding="utf-8"?>
<!-- Generator: Adobe Illustrator 16.0.0, SVG Export Plug-In . SVG Version: 6.00 Build 0)  -->
<!DOCTYPE svg PUBLIC "-//W3C//DTD SVG 1.1//EN" "http://www.w3.org/Graphics/SVG/1.1/DTD/svg11.dtd">
<svg version="1.1" xmlns="http://www.w3.org/2000/svg" xmlns:xlink="http://www.w3.org/1999/xlink" x="0px" y="0px" width="1600px"
	 height="198px" viewBox="0 0 1600 198" enable-background="new 0 0 1600 198" xml:space="preserve">
<g id="Layer_1">
	
		<linearGradient id="SVGID_1_" gradientUnits="userSpaceOnUse" x1="-158.7466" y1="173.5664" x2="-158.7466" y2="172.4568" gradientTransform="matrix(-1600 0 0 -198.0004 -253195.5 34344.5703)">
		<stop  offset="0" style="stop-color:#57BBC1;stop-opacity:0.25"/>
		<stop  offset="1" style="stop-color:#119A48"/>
	</linearGradient>
	<path fill="url(#SVGID_1_)" d="M1599.995,121C1289,121,1190.102-0.25,789,0C389,0,289,121,0,121v77h1600
		C1600,198,1599.995,150,1599.995,121z"/>
	<g display="none">
		<path display="inline" fill="#9C8AC1" d="M1528.007,82.876c-0.338-0.932-1.151-1.611-2.128-1.777l-11.746-1.996l0.935-5.498
			c0.255-1.499-0.754-2.92-2.253-3.175l-8.255-1.402l1.84-10.828c0.254-1.499-0.755-2.92-2.253-3.174l-10.742-1.825l1.86-10.951
			c0.255-1.499-0.754-2.92-2.254-3.175l-27.024-4.591c-1.499-0.255-2.921,0.754-3.175,2.253l-1.861,10.951l-10.742-1.825
			c-1.499-0.255-2.921,0.754-3.175,2.252l-1.84,10.828l-8.255-1.402c-1.498-0.255-2.919,0.754-3.174,2.252l-1.82,10.714
			l-10.969-1.863l5.043-29.684c0.255-1.499-0.755-2.92-2.253-3.175l-32.566-5.533c-1.498-0.255-2.921,0.754-3.176,2.252
			l-5.043,29.683l-0.44-0.075c-0.976-0.166-1.966,0.204-2.591,0.97c-0.627,0.765-0.795,1.808-0.44,2.73l11.771,30.615
			c1.466,3.751,5.564,7.089,9.534,7.763l89.747,15.248c3.97,0.675,8.939-1.122,11.563-4.181l25.385-29.655
			C1528.153,84.85,1528.344,83.808,1528.007,82.876z M1508.706,78.181l-18.997-3.228l0.473-2.785l18.997,3.228L1508.706,78.181z
			 M1484.754,71.247l-0.479,2.82c-4.609-0.412-8.372,2.097-10.177,3.601l-12.301-2.09l1.359-8L1484.754,71.247L1484.754,71.247z
			 M1499.131,68.105l-21.71-3.688l1.379-8.114l21.71,3.688L1499.131,68.105z M1467.778,40.372l21.598,3.669l-1.399,8.237
			l-21.598-3.669L1467.778,40.372z M1452,51.75l21.371,3.631l-1.378,8.114l-21.372-3.631L1452,51.75L1452,51.75z M1438.731,63.428
			l18.996,3.228l-1.359,8l-18.996-3.228L1438.731,63.428z M1392.991,36.14l27.138,4.611l-0.889,5.229l-5.427-0.922
			c-1.499-0.255-2.921,0.754-3.176,2.252s0.755,2.921,2.254,3.175l5.427,0.922l-0.937,5.512l-5.427-0.922
			c-1.499-0.255-2.922,0.753-3.176,2.252c-0.255,1.499,0.755,2.92,2.254,3.175l5.427,0.922l-0.913,5.372l-27.139-4.611
			L1392.991,36.14z M1497.944,111.676c-1.345,1.568-4.425,2.682-6.461,2.336l-89.746-15.248c-2.037-0.346-4.576-2.414-5.323-4.325
			l-10.031-26.09l30.956,5.259l57.161,9.712c0.903,0.153,1.835-0.163,2.466-0.827c0.034-0.035,3.417-3.54,7.277-2.884l25.801,4.384
			c0.144,0.05,0.292,0.091,0.446,0.117c0.153,0.026,0.307,0.037,0.459,0.037l9.218,1.566L1497.944,111.676z"/>
		<path display="inline" fill="#9C8AC1" d="M1405.672,43.676c-0.716-0.122-1.464,0.048-2.056,0.467
			c-0.591,0.42-0.998,1.07-1.12,1.786c-0.121,0.712,0.049,1.46,0.468,2.051c0.421,0.592,1.07,1.002,1.785,1.124
			c0.716,0.122,1.464-0.051,2.057-0.471c0.59-0.42,0.998-1.07,1.118-1.782c0.122-0.716-0.048-1.464-0.467-2.055
			C1407.037,44.205,1406.387,43.798,1405.672,43.676z"/>
		<path display="inline" fill="#9C8AC1" d="M1397.642,42.312c-0.712-0.121-1.463,0.048-2.052,0.468
			c-0.591,0.42-1.001,1.069-1.123,1.785c-0.121,0.712,0.052,1.461,0.472,2.052c0.419,0.591,1.069,1.002,1.781,1.123
			c0.716,0.122,1.464-0.051,2.056-0.471c0.591-0.419,0.998-1.069,1.119-1.782c0.122-0.716-0.048-1.464-0.468-2.056
			C1399.007,42.84,1398.357,42.434,1397.642,42.312z"/>
		<path display="inline" fill="#9C8AC1" d="M1403.812,54.617c-0.715-0.122-1.463,0.048-2.056,0.467
			c-0.59,0.42-0.998,1.07-1.119,1.786c-0.121,0.712,0.049,1.46,0.468,2.051c0.42,0.592,1.069,1.002,1.785,1.124
			c0.715,0.122,1.464-0.052,2.056-0.471c0.591-0.42,0.998-1.069,1.119-1.782c0.122-0.716-0.048-1.464-0.467-2.055
			C1405.178,55.145,1404.528,54.738,1403.812,54.617z"/>
		<path display="inline" fill="#9C8AC1" d="M1395.783,53.252c-0.713-0.121-1.461,0.048-2.052,0.468
			c-0.592,0.42-1.002,1.069-1.123,1.785c-0.121,0.712,0.052,1.46,0.472,2.052c0.419,0.591,1.068,1.002,1.781,1.123
			c0.715,0.122,1.464-0.052,2.055-0.471c0.592-0.42,0.999-1.069,1.12-1.782c0.121-0.716-0.049-1.464-0.468-2.055
			C1397.148,53.781,1396.498,53.374,1395.783,53.252z"/>
		<path display="inline" fill="#9C8AC1" d="M1419.178,79.593c-0.713-0.121-1.461,0.048-2.052,0.469
			c-0.592,0.418-1.001,1.068-1.123,1.784c-0.121,0.712,0.051,1.464,0.471,2.055c0.416,0.591,1.069,0.998,1.781,1.119
			c0.717,0.122,1.465-0.047,2.055-0.467c0.593-0.419,0.999-1.069,1.12-1.785c0.122-0.716-0.047-1.464-0.468-2.055
			C1420.543,80.122,1419.894,79.714,1419.178,79.593z"/>
		<path display="inline" fill="#9C8AC1" d="M1430.057,81.441c-0.716-0.122-1.463,0.048-2.055,0.468
			c-0.592,0.418-0.998,1.069-1.12,1.785c-0.121,0.715,0.048,1.463,0.468,2.054s1.072,0.999,1.785,1.12
			c0.716,0.122,1.464-0.047,2.055-0.467c0.592-0.419,0.998-1.069,1.12-1.785c0.121-0.716-0.048-1.464-0.468-2.055
			C1431.423,81.97,1430.772,81.563,1430.057,81.441z"/>
		<path display="inline" fill="#9C8AC1" d="M1440.936,83.29c-0.716-0.122-1.463,0.047-2.055,0.468
			c-0.591,0.418-0.998,1.072-1.119,1.785s0.048,1.463,0.467,2.055c0.42,0.591,1.068,0.998,1.785,1.12
			c0.713,0.121,1.46-0.048,2.052-0.468c0.591-0.419,1.002-1.072,1.123-1.784c0.121-0.713-0.051-1.465-0.471-2.056
			S1441.648,83.411,1440.936,83.29z"/>
		<path display="inline" fill="#9C8AC1" d="M1451.812,85.137c-0.713-0.121-1.463,0.048-2.052,0.469
			c-0.591,0.418-1.001,1.068-1.123,1.784c-0.121,0.715,0.052,1.464,0.472,2.055c0.416,0.591,1.068,0.998,1.78,1.119
			c0.717,0.122,1.465-0.047,2.056-0.467c0.592-0.419,0.999-1.069,1.12-1.785c0.122-0.716-0.048-1.464-0.468-2.055
			C1453.178,85.667,1452.527,85.259,1451.812,85.137z"/>
		<path display="inline" fill="#9C8AC1" d="M1462.69,86.985c-0.712-0.121-1.462,0.048-2.055,0.468
			c-0.59,0.419-0.998,1.069-1.12,1.785c-0.121,0.715,0.049,1.463,0.468,2.054c0.421,0.592,1.072,0.999,1.785,1.12
			c0.716,0.122,1.464-0.047,2.056-0.467c0.591-0.419,0.998-1.069,1.12-1.785c0.122-0.716-0.049-1.464-0.468-2.055
			C1464.057,87.515,1463.406,87.107,1462.69,86.985z"/>
		<path display="inline" fill="#9C8AC1" d="M1473.569,88.834c-0.715-0.122-1.462,0.048-2.055,0.468
			c-0.59,0.418-0.997,1.068-1.119,1.785c-0.122,0.715,0.049,1.463,0.467,2.055c0.421,0.591,1.07,0.998,1.785,1.12
			c0.713,0.121,1.46-0.048,2.053-0.468c0.591-0.419,1.002-1.069,1.123-1.784c0.122-0.716-0.052-1.465-0.471-2.055
			C1474.932,89.363,1474.282,88.955,1473.569,88.834z"/>
	</g>
	<polyline display="none" fill="#9C8AC1" points="1384,65 1398.074,99 1493.5,116.5 1524,84.154 	"/>
</g>
<g id="Layer_2">
</g>
</svg>
