<?xml version="1.0" encoding="utf-8"?>
<!-- Generator: Adobe Illustrator 16.0.0, SVG Export Plug-In . SVG Version: 6.00 Build 0)  -->
<!DOCTYPE svg PUBLIC "-//W3C//DTD SVG 1.1//EN" "http://www.w3.org/Graphics/SVG/1.1/DTD/svg11.dtd">
<svg version="1.1" id="Layer_1" xmlns="http://www.w3.org/2000/svg" xmlns:xlink="http://www.w3.org/1999/xlink" x="0px" y="0px"
	 width="1600px" height="198px" viewBox="0 0 1600 198" enable-background="new 0 0 1600 198" xml:space="preserve">
<g id="Layer_1_1_">
	<path fill="none" stroke="#9C8AC1" stroke-width="3" stroke-miterlimit="10" d="M1602.995,157.833
		c-312.453,0-411.815-73.485-814.796-73.333c-401.875,0-502.344,73.333-792.699,73.333V204.5H1603
		C1603,204.5,1602.995,175.409,1602.995,157.833z"/>
	<g>
		<path fill="#9C8AC1" d="M1465.036,109.678c-0.392-0.91-1.241-1.543-2.226-1.652l-11.842-1.323l0.62-5.543
			c0.17-1.511-0.919-2.873-2.43-3.042l-8.321-0.93l1.221-10.916c0.169-1.51-0.92-2.872-2.43-3.041l-10.829-1.21l1.234-11.04
			c0.169-1.511-0.919-2.873-2.432-3.042l-27.241-3.046c-1.512-0.169-2.873,0.919-3.042,2.43l-1.234,11.04l-10.829-1.211
			c-1.511-0.169-2.873,0.918-3.042,2.429l-1.22,10.915l-8.321-0.93c-1.511-0.169-2.872,0.918-3.041,2.429l-1.207,10.802
			l-11.057-1.235l3.344-29.923c0.17-1.511-0.919-2.873-2.43-3.042l-32.828-3.67c-1.511-0.169-2.873,0.919-3.042,2.43l-3.346,29.923
			l-0.444-0.05c-0.983-0.109-1.951,0.315-2.531,1.116c-0.582,0.8-0.69,1.852-0.284,2.752l13.494,29.896
			c1.678,3.661,5.96,6.762,9.962,7.209l90.47,10.114c4,0.449,8.86-1.629,11.308-4.832l23.655-31.051
			C1465.295,111.641,1465.426,110.59,1465.036,109.678z M1445.499,106.09l-19.149-2.142l0.312-2.808l19.15,2.142L1445.499,106.09z
			 M1421.192,100.529l-0.318,2.844c-4.626-0.15-8.239,2.568-9.956,4.174l-12.4-1.387l0.902-8.064L1421.192,100.529L1421.192,100.529
			z M1435.366,96.575l-21.886-2.448l0.916-8.179l21.885,2.448L1435.366,96.575z M1402.486,70.67l21.771,2.434l-0.928,8.303
			l-21.772-2.435L1402.486,70.67z M1387.381,82.928l21.543,2.409l-0.914,8.178l-21.543-2.408L1387.381,82.928L1387.381,82.928z
			 M1374.799,95.342l19.149,2.141l-0.903,8.065l-19.147-2.144L1374.799,95.342z M1327.579,70.702l27.355,3.059l-0.589,5.271
			l-5.471-0.611c-1.512-0.169-2.873,0.919-3.043,2.43c-0.169,1.511,0.92,2.873,2.431,3.042l5.472,0.611l-0.621,5.557l-5.471-0.611
			c-1.513-0.169-2.875,0.918-3.043,2.43c-0.17,1.51,0.921,2.872,2.432,3.041l5.471,0.612l-0.604,5.416l-27.357-3.06L1327.579,70.702
			z M1436.661,140.143c-1.253,1.643-4.265,2.93-6.316,2.699l-90.47-10.115c-2.054-0.229-4.705-2.148-5.561-4.015l-11.5-25.478
			l31.205,3.49l57.621,6.441c0.91,0.102,1.822-0.268,2.415-0.966c0.031-0.037,3.209-3.729,7.103-3.294l26.008,2.908
			c0.146,0.041,0.297,0.074,0.452,0.092c0.154,0.019,0.309,0.019,0.46,0.01l9.293,1.04L1436.661,140.143z"/>
		<path fill="#9C8AC1" d="M1340.668,77.504c-0.721-0.081-1.458,0.131-2.025,0.583c-0.564,0.453-0.935,1.125-1.016,1.847
			c-0.081,0.718,0.131,1.455,0.583,2.021c0.453,0.567,1.126,0.939,1.847,1.02c0.722,0.081,1.458-0.135,2.025-0.587
			c0.564-0.453,0.938-1.125,1.016-1.843c0.082-0.721-0.131-1.458-0.583-2.025C1342.062,77.954,1341.39,77.585,1340.668,77.504z"/>
		<path fill="#9C8AC1" d="M1332.573,76.599c-0.718-0.081-1.457,0.131-2.021,0.584c-0.566,0.453-0.938,1.125-1.021,1.846
			c-0.081,0.719,0.135,1.456,0.588,2.022c0.452,0.566,1.124,0.939,1.843,1.02c0.721,0.081,1.458-0.135,2.025-0.587
			c0.564-0.453,0.935-1.125,1.015-1.843c0.082-0.722-0.13-1.458-0.583-2.026C1333.967,77.049,1333.295,76.68,1332.573,76.599z"/>
		<path fill="#9C8AC1" d="M1339.436,88.533c-0.722-0.081-1.459,0.131-2.025,0.583c-0.564,0.453-0.938,1.125-1.016,1.846
			c-0.082,0.719,0.132,1.456,0.582,2.021c0.453,0.567,1.125,0.94,1.848,1.021c0.721,0.08,1.459-0.136,2.025-0.588
			c0.565-0.453,0.937-1.125,1.017-1.843c0.08-0.721-0.131-1.458-0.583-2.024C1340.828,88.982,1340.157,88.613,1339.436,88.533z"/>
		<path fill="#9C8AC1" d="M1331.341,87.627c-0.718-0.08-1.455,0.132-2.021,0.584c-0.566,0.453-0.938,1.125-1.021,1.846
			c-0.08,0.718,0.136,1.455,0.589,2.021c0.451,0.567,1.123,0.94,1.843,1.02c0.721,0.081,1.457-0.134,2.023-0.587
			c0.567-0.453,0.938-1.124,1.018-1.842c0.079-0.722-0.132-1.459-0.584-2.025C1332.733,88.078,1332.062,87.708,1331.341,87.627z"/>
		<path fill="#9C8AC1" d="M1356.196,112.594c-0.718-0.08-1.456,0.131-2.021,0.584s-0.938,1.124-1.02,1.846
			c-0.081,0.72,0.134,1.459,0.587,2.024c0.448,0.567,1.125,0.937,1.842,1.017c0.723,0.082,1.46-0.129,2.024-0.582
			c0.566-0.453,0.938-1.125,1.018-1.847c0.081-0.723-0.13-1.46-0.584-2.024C1357.59,113.045,1356.919,112.675,1356.196,112.594z"/>
		<path fill="#9C8AC1" d="M1367.164,113.82c-0.723-0.081-1.459,0.13-2.025,0.584c-0.566,0.451-0.936,1.125-1.017,1.846
			c-0.08,0.723,0.131,1.458,0.583,2.023c0.454,0.567,1.128,0.938,1.847,1.018c0.722,0.081,1.458-0.131,2.025-0.584
			c0.565-0.452,0.935-1.123,1.016-1.846s-0.131-1.459-0.584-2.024C1368.557,114.271,1367.885,113.9,1367.164,113.82z"/>
		<path fill="#9C8AC1" d="M1378.13,115.046c-0.722-0.08-1.458,0.131-2.024,0.585c-0.565,0.45-0.937,1.128-1.017,1.846
			c-0.08,0.719,0.132,1.459,0.583,2.024c0.453,0.565,1.123,0.937,1.846,1.017c0.721,0.08,1.455-0.132,2.022-0.584
			c0.564-0.451,0.938-1.127,1.02-1.846c0.08-0.718-0.135-1.459-0.587-2.025C1379.52,115.497,1378.848,115.127,1378.13,115.046z"/>
		<path fill="#9C8AC1" d="M1389.093,116.271c-0.718-0.082-1.457,0.131-2.021,0.584c-0.566,0.453-0.938,1.125-1.021,1.847
			c-0.08,0.721,0.137,1.458,0.589,2.024c0.448,0.565,1.123,0.936,1.841,1.017c0.724,0.079,1.461-0.13,2.025-0.583
			c0.567-0.453,0.938-1.126,1.018-1.848s-0.132-1.459-0.584-2.023C1390.486,116.723,1389.814,116.354,1389.093,116.271z"/>
		<path fill="#9C8AC1" d="M1400.061,117.498c-0.719-0.079-1.457,0.131-2.024,0.584c-0.566,0.453-0.938,1.124-1.017,1.848
			c-0.08,0.721,0.132,1.457,0.582,2.023c0.454,0.566,1.129,0.936,1.848,1.015c0.722,0.082,1.459-0.129,2.025-0.583
			c0.564-0.451,0.937-1.123,1.018-1.845c0.08-0.722-0.133-1.458-0.585-2.022C1401.454,117.948,1400.781,117.579,1400.061,117.498z"
			/>
		<path fill="#9C8AC1" d="M1411.025,118.725c-0.721-0.08-1.456,0.131-2.024,0.586c-0.563,0.45-0.935,1.123-1.015,1.844
			c-0.082,0.723,0.131,1.46,0.583,2.025s1.125,0.936,1.845,1.018c0.719,0.08,1.455-0.133,2.021-0.586
			c0.567-0.45,0.94-1.123,1.021-1.844c0.081-0.724-0.135-1.459-0.587-2.024C1412.416,119.175,1411.744,118.805,1411.025,118.725z"/>
	</g>
	<polyline fill="#9C8AC1" points="1320.245,100.027 1336.232,133.171 1432.499,145.212 1461.108,111.184 	"/>
	
		<image display="none" overflow="visible" enable-background="new    " width="3892" height="3709" xlink:href="../../../docs/assets/images/Squint-Logo.png"  transform="matrix(0.0083 0.0014 -0.0014 0.0083 1443.666 122.0312)">
	</image>
	
		<rect x="1299.724" y="92.3" transform="matrix(-0.9809 -0.1946 0.1946 -0.9809 2683.3345 487.2111)" display="none" fill="none" width="131.751" height="38.999"/>
	
		<text transform="matrix(0.9931 0.1173 -0.1173 0.9931 1348.7969 128.0068)" fill="#FFFFFF" font-family="'PoetsenOne-Regular'" font-size="22">SQUINT</text>
</g>
<g id="Layer_2">
</g>
</svg>
