<?xml version="1.0" encoding="utf-8"?>
<!-- Generator: Adobe Illustrator 16.0.0, SVG Export Plug-In . SVG Version: 6.00 Build 0)  -->
<!DOCTYPE svg PUBLIC "-//W3C//DTD SVG 1.1//EN" "http://www.w3.org/Graphics/SVG/1.1/DTD/svg11.dtd">
<svg version="1.1" id="Layer_1" xmlns="http://www.w3.org/2000/svg" xmlns:xlink="http://www.w3.org/1999/xlink" x="0px" y="0px"
	 width="1920px" height="150px" viewBox="0 0 1920 150" enable-background="new 0 0 1920 150" xml:space="preserve">
<path fill="none" stroke="#FFFFFF" stroke-width="21" stroke-miterlimit="10" d="M-5884,81.5c170.988,0,170.988,14,341.98,14
	c170.979,0,170.979-14,341.955-14c170.982,0,170.982,14,341.973,14c170.978,0,170.978-14,341.963-14
	c170.983,0,170.983,14,341.959,14c170.99,0,170.99-14,341.985-14c170.975,0,170.975,14,341.958,14c170.983,0,170.983-14,341.97-14
	c170.991,0,170.991,14,341.989,14c170.986,0,170.986-14,341.968-14c170.985,0,170.985,14,341.964,14
	c170.985,0,170.985-14,341.981-14c170.972,0,170.972,14,341.973,14c171.004,0,170.987-14,341.983-14s170.995,14,342.004,14
	c170.986,0,170.986-14,341.989-14c170.98,0,170.98,14,341.981,14c171,0,170.995-14,341.974-14c170.985,0,170.985,14,341.979,14
	c170.987,0,170.987-14,341.983-14c170.985,0,170.985,14,341.996,14c170.993,0,170.993-14,341.98-14c170.995,0,170.995,14,342.006,14
	c170.986,0,170.979-14,341.981-14c170.964,0,170.964,14,341.951,14c170.973,0,170.973-14,341.943-14c170.98,0,170.98,14,341.965,14
	c170.98,0,170.98-14,341.982-14c170.995,0,170.986,14,342.004,14c170.985,0,170.985-14,341.974-14c170.995,0,170.995,14,341.995,14
	c170.996,0,170.988-14,341.989-14c170.981,0,170.981,14,341.983,14c171.01,0,170.993-14,341.994-14c171.011,0,171.004,14,342.029,14
	c171.002,0,171.002-14,342.011-14c171.019,0,171.004,14,342.021,14c170.971,0,170.971-14,341.96-14c171.011,0,171.011,14,342.019,14
	c171.018,0,170.994-14,342.019-14c171.012,0,171.012,14,342.044,14c171,0,171-14,342.025-14c171.027,0,171.027,14,342.059,14
	c171.021,0,171.021-14,342.059-14"/>
<path fill="#FFFFFF" d="M-23,88h1998v95H-23V88z"/>
</svg>
