<?xml version="1.0" encoding="utf-8"?>
<!-- Generator: Adobe Illustrator 16.0.0, SVG Export Plug-In . SVG Version: 6.00 Build 0)  -->
<!DOCTYPE svg PUBLIC "-//W3C//DTD SVG 1.1//EN" "http://www.w3.org/Graphics/SVG/1.1/DTD/svg11.dtd">
<svg version="1.1" id="Layer_1" xmlns="http://www.w3.org/2000/svg" xmlns:xlink="http://www.w3.org/1999/xlink" x="0px" y="0px"
	 width="1920px" height="150px" viewBox="0 0 1920 150" enable-background="new 0 0 1920 150" xml:space="preserve">
<g>
	<path fill="none" stroke="#FFFFFF" stroke-width="21" stroke-miterlimit="10" d="M0,82.5c21.818,0,21.818,14,43.636,14
		c21.816,0,21.816-14,43.632-14c21.817,0,21.817,14,43.635,14c21.816,0,21.816-14,43.633-14c21.817,0,21.817,14,43.633,14
		c21.818,0,21.818-14,43.636-14c21.816,0,21.816,14,43.633,14s21.817-14,43.634-14c21.818,0,21.818,14,43.637,14
		c21.817,0,21.817-14,43.634-14c21.817,0,21.817,14,43.634,14c21.817,0,21.817-14,43.635-14c21.816,0,21.816,14,43.635,14
		s21.818-14,43.636-14c21.818,0,21.818,14,43.638,14c21.818,0,21.818-14,43.637-14c21.817,0,21.817,14,43.636,14
		s21.818-14,43.635-14c21.817,0,21.817,14,43.636,14c21.817,0,21.817-14,43.635-14c21.818,0,21.818,14,43.638,14
		c21.818,0,21.818-14,43.636-14c21.818,0,21.818,14,43.638,14c21.818,0,21.817-14,43.636-14c21.814,0,21.814,14,43.632,14
		c21.815,0,21.815-14,43.631-14c21.816,0,21.816,14,43.633,14c21.817,0,21.817-14,43.636-14s21.818,14,43.639,14
		c21.817,0,21.817-14,43.635-14c21.818,0,21.818,14,43.637,14c21.819,0,21.818-14,43.637-14c21.817,0,21.816,14,43.636,14
		s21.818-14,43.638-14c21.82,0,21.819,14,43.641,14c21.82,0,21.819-14,43.64-14s21.819,14,43.64,14c21.816,0,21.816-14,43.633-14
		c21.82,0,21.82,14,43.641,14s21.818-14,43.641-14c21.82,0,21.82,14,43.643,14c21.82,0,21.82-14,43.641-14
		c21.823,0,21.823,14,43.646,14c21.822,0,21.822-14,43.646-14"/>
</g>
<rect x="-23" y="92" fill="#FFFFFF" width="1998" height="95"/>
</svg>
